<svg width="208" height="210" viewBox="0 0 208 210" fill="none" xmlns="http://www.w3.org/2000/svg">
<path d="M50.052 203.621H44.921L44.41 191.749H49.541L50.052 203.621Z" fill="#9F5B53"/>
<path d="M80.845 203.621H75.714L73.138 191.749H78.269L80.845 203.621Z" fill="#9F5B53"/>
<path d="M75.35 203.047H81.111C81.2134 203.046 81.3131 203.081 81.3933 203.144C81.4736 203.208 81.5296 203.297 81.552 203.397L82.567 207.954C82.5902 208.066 82.588 208.181 82.5605 208.291C82.533 208.401 82.481 208.504 82.4084 208.591C82.3357 208.679 82.2443 208.749 82.1408 208.796C82.0374 208.843 81.9247 208.867 81.811 208.864C79.802 208.829 78.822 208.71 76.288 208.71C74.734 208.71 71.521 208.878 69.365 208.878C67.209 208.878 66.936 206.743 67.811 206.554C71.766 205.686 73.257 204.496 74.517 203.362C74.7453 203.156 75.0426 203.044 75.35 203.047Z" fill="#263238"/>
<path d="M44.956 203.047H50.556C50.6585 203.046 50.7581 203.081 50.8384 203.144C50.9186 203.208 50.9746 203.297 50.997 203.397L52.005 207.954C52.0306 208.064 52.0307 208.178 52.0055 208.288C51.9803 208.398 51.9304 208.501 51.8596 208.588C51.7887 208.676 51.6988 208.747 51.5966 208.794C51.4945 208.842 51.3828 208.866 51.27 208.864C49.247 208.829 46.328 208.71 43.787 208.71C40.819 208.71 38.257 208.878 34.778 208.878C32.678 208.878 32.083 206.743 32.965 206.554C36.976 205.672 40.252 205.581 43.724 203.446C44.0881 203.198 44.5156 203.06 44.956 203.047Z" fill="#263238"/>
<path d="M41.183 36.0342L34.26 33.2972C34.26 33.2972 26.301 49.5582 23.76 50.3772C20.351 51.4972 13.344 54.5772 9.10903 55.1862C8.57003 55.8862 7.70903 57.9862 7.88403 58.7562C13.722 60.6602 26.161 58.1262 28.737 56.1242C34.652 51.5602 41.183 36.0342 41.183 36.0342Z" fill="#9F5B53"/>
<path d="M43.045 32.3451C44.774 36.9371 36.045 50.4471 36.045 50.4471L25.79 44.8471C27.3277 40.6446 29.3132 36.6198 31.712 32.8421C35.317 27.4661 41.148 27.3471 43.045 32.3451Z" fill="#FFB347"/>
<path opacity="0.6" d="M43.045 32.3451C44.774 36.9371 36.045 50.4471 36.045 50.4471L25.79 44.8471C27.3277 40.6446 29.3132 36.6198 31.712 32.8421C35.317 27.4661 41.148 27.3471 43.045 32.3451Z" fill="#FAFAFA"/>
<path d="M43.199 32.9472C41.19 31.9952 38.936 32.7932 36.668 36.5802C34.4 40.3672 32.573 46.7092 32.412 48.5152L36.017 50.4682C36.017 50.4682 44.102 37.9732 43.199 32.9472Z" fill="#FFB347"/>
<path opacity="0.4" d="M43.199 32.9472C41.19 31.9952 38.936 32.7932 36.668 36.5802C34.4 40.3672 32.573 46.7092 32.412 48.5152L36.017 50.4682C36.017 50.4682 44.102 37.9732 43.199 32.9472Z" fill="#FAFAFA"/>
<path d="M10.0049 55.1372L4.22294 52.7572L2.26294 59.0152C4.5831 59.3658 6.94278 59.3658 9.26294 59.0152L10.0049 55.1372Z" fill="#9F5B53"/>
<path d="M0.0159912 52.6102L0.113991 56.7682L2.26299 59.0152L4.22299 52.7642L0.0159912 52.6102Z" fill="#9F5B53"/>
<path d="M44.417 191.749L44.676 197.874H49.807L49.541 191.749H44.417Z" fill="#8A4743"/>
<path d="M78.269 191.749H73.138L74.468 197.874H79.599L78.269 191.749Z" fill="#8A4743"/>
<path d="M36.955 28.8382C36.955 28.8382 30.9 44.3222 36.654 73.1692H64.08C64.269 68.9692 61.623 48.4102 65.69 28.5722C62.6569 27.9871 59.5892 27.599 56.506 27.4102C52.6219 27.186 48.7281 27.186 44.844 27.4102C42.1811 27.6796 39.5434 28.1571 36.955 28.8382Z" fill="#FFB347"/>
<path opacity="0.6" d="M36.955 28.8382C36.955 28.8382 30.9 44.3222 36.654 73.1692H64.08C64.269 68.9692 61.623 48.4102 65.69 28.5722C62.6569 27.9871 59.5892 27.599 56.506 27.4102C52.6219 27.186 48.7281 27.186 44.844 27.4102C42.1811 27.6796 39.5434 28.1571 36.955 28.8382Z" fill="#FAFAFA"/>
<path d="M59.726 33.4722C59.271 36.7342 60.3 44.5462 63.408 53.5762C63.3628 45.8587 63.9976 38.1522 65.305 30.5462V30.5042C63.499 30.3222 60.167 30.4132 59.726 33.4722Z" fill="#FFB347"/>
<path opacity="0.4" d="M59.726 33.4722C59.271 36.7342 60.3 44.5462 63.408 53.5762C63.3628 45.8587 63.9976 38.1522 65.305 30.5462V30.5042C63.499 30.3222 60.167 30.4132 59.726 33.4722Z" fill="#FAFAFA"/>
<path d="M43.073 27.6132C43.647 27.5362 44.242 27.4662 44.844 27.4102C48.7281 27.186 52.6219 27.186 56.506 27.4102C56.996 27.4102 57.486 27.4662 57.976 27.5082L57.808 27.9282C57.731 28.1172 55.862 32.6182 48.008 32.6182C46.979 32.6182 43.864 32.6182 42.884 30.5182C42.6971 30.0505 42.6171 29.5469 42.6498 29.0443C42.6825 28.5417 42.8271 28.0528 43.073 27.6132Z" fill="#FAFAFA"/>
<path d="M54.98 16.5042C54.245 20.2562 53.881 24.9042 56.506 27.4102C56.506 27.4102 54.994 31.2182 48.022 31.2182C41.652 31.2182 44.844 27.4102 44.844 27.4102C49.044 26.4162 48.806 21.2432 48.078 18.3102L54.98 16.5042Z" fill="#9F5B53"/>
<path d="M54.49 19.9902L49.548 17.9392L48.911 18.1072C49.0661 18.9713 49.3271 19.813 49.688 20.6132C50.836 22.6307 52.7116 24.1331 54.931 24.8132C54.479 23.2481 54.3293 21.6113 54.49 19.9902Z" fill="#8A4743"/>
<path d="M61.987 17.2602C61.1242 18.2056 59.9258 18.7759 58.648 18.8492C56.954 18.9262 56.485 17.3162 57.248 15.9162C57.948 14.6562 59.698 13.1162 61.245 13.6832C61.5834 13.8147 61.8835 14.0288 62.1181 14.306C62.3526 14.5832 62.5141 14.9146 62.5878 15.2701C62.6616 15.6256 62.6452 15.9939 62.5403 16.3415C62.4354 16.6891 62.2451 17.0049 61.987 17.2602Z" fill="#8A4743"/>
<path d="M61.154 5.45124C63.464 6.92824 63.604 14.1382 60.146 15.1882C56.688 16.2382 56.8 2.63724 61.154 5.45124Z" fill="#263238"/>
<path d="M47.959 9.14719C47.399 14.2082 46.818 17.1412 48.904 20.1442C52.033 24.6662 58.613 23.4482 60.671 18.6532C62.526 14.3412 63.128 6.79519 58.571 3.95319C57.5694 3.32215 56.4231 2.95767 55.241 2.89434C54.0588 2.83102 52.8801 3.07096 51.8168 3.59139C50.7535 4.11181 49.8409 4.89544 49.1657 5.86783C48.4905 6.84021 48.0751 7.96908 47.959 9.14719Z" fill="#9F5B53"/>
<path d="M47.119 12.2552C48.47 12.9552 50.15 9.65119 50.5 6.19319C52.796 8.37019 65.9 8.09719 63.919 4.94719C60.853 0.0471905 49.695 -1.00281 47.952 2.22419C44.767 2.36419 44.046 10.7222 47.119 12.2552Z" fill="#263238"/>
<path d="M44.746 14.2712C45.2334 15.4556 46.1695 16.3993 47.35 16.8962C48.925 17.5332 49.905 16.1962 49.632 14.5932C49.38 13.1932 48.267 11.0932 46.615 11.1492C46.2537 11.1625 45.9016 11.266 45.5904 11.45C45.2793 11.6341 45.0191 11.8929 44.8334 12.2031C44.6477 12.5132 44.5425 12.8649 44.5272 13.226C44.5119 13.5872 44.5871 13.9464 44.746 14.2712Z" fill="#9F5B53"/>
<path d="M36.654 73.1692C36.654 73.1692 35.954 111.515 36.5 127.153C37.081 143.421 42.765 196.684 42.765 196.684H51.452C51.452 196.684 51.774 144.373 52.152 128.392C52.572 110.976 54.679 73.1692 54.679 73.1692H36.654Z" fill="#FFB347"/>
<path d="M52.026 194.024C52.068 194.024 52.026 196.866 52.026 196.866H42.009L41.589 193.674L52.026 194.024Z" fill="#FFB347"/>
<path opacity="0.6" d="M52.026 194.024C52.068 194.024 52.026 196.866 52.026 196.866H42.009L41.589 193.674L52.026 194.024Z" fill="#FAFAFA"/>
<path d="M48.652 83.3472C48.813 102.373 49.961 113.93 52.313 123.247C52.614 114.147 53.181 102.17 53.713 92.2022L48.652 83.3472Z" fill="#FFB347"/>
<path opacity="0.2" d="M48.652 83.3472C48.813 102.373 49.961 113.93 52.313 123.247C52.614 114.147 53.181 102.17 53.713 92.2022L48.652 83.3472Z" fill="black"/>
<path d="M46.384 73.1692C46.384 73.1692 52.201 112.369 55.4 127.069C58.9 143.169 72.081 196.712 72.081 196.712H81.475C81.475 196.712 72.781 144.45 70.786 128.532C68.616 111.249 64.08 73.2322 64.08 73.2322L46.384 73.1692Z" fill="#FFB347"/>
<path d="M81.475 194.241C81.51 194.241 81.944 196.866 81.944 196.866H71.619L70.702 193.849L81.475 194.241Z" fill="#FFB347"/>
<path opacity="0.6" d="M81.475 194.241C81.51 194.241 81.944 196.866 81.944 196.866H71.619L70.702 193.849L81.475 194.241Z" fill="#FAFAFA"/>
<path d="M77.688 191.147C77.6668 191.145 77.6467 191.137 77.6305 191.123C77.6142 191.109 77.6026 191.091 77.597 191.07C77.52 190.594 69.68 143.407 67.888 129.106C65.942 113.587 61.84 79.1682 61.798 78.8182C61.797 78.8071 61.7983 78.796 61.8016 78.7854C61.805 78.7749 61.8104 78.7651 61.8175 78.7566C61.8247 78.7482 61.8335 78.7412 61.8433 78.7362C61.8532 78.7311 61.8639 78.728 61.875 78.7272C61.898 78.7251 61.921 78.732 61.9392 78.7463C61.9574 78.7606 61.9695 78.7813 61.973 78.8042C62.015 79.1472 66.11 113.566 68.063 129.085C69.855 143.386 77.695 190.566 77.772 191.042C77.774 191.053 77.7738 191.065 77.7713 191.075C77.7688 191.086 77.7642 191.097 77.7577 191.106C77.7512 191.115 77.7429 191.123 77.7333 191.129C77.7237 191.135 77.7131 191.138 77.702 191.14L77.688 191.147Z" fill="#FFB347"/>
<path opacity="0.2" d="M77.688 191.147C77.6668 191.145 77.6467 191.137 77.6305 191.123C77.6142 191.109 77.6026 191.091 77.597 191.07C77.52 190.594 69.68 143.407 67.888 129.106C65.942 113.587 61.84 79.1682 61.798 78.8182C61.797 78.8071 61.7983 78.796 61.8016 78.7854C61.805 78.7749 61.8104 78.7651 61.8175 78.7566C61.8247 78.7482 61.8335 78.7412 61.8433 78.7362C61.8532 78.7311 61.8639 78.728 61.875 78.7272C61.898 78.7251 61.921 78.732 61.9392 78.7463C61.9574 78.7606 61.9695 78.7813 61.973 78.8042C62.015 79.1472 66.11 113.566 68.063 129.085C69.855 143.386 77.695 190.566 77.772 191.042C77.774 191.053 77.7738 191.065 77.7713 191.075C77.7688 191.086 77.7642 191.097 77.7577 191.106C77.7512 191.115 77.7429 191.123 77.7333 191.129C77.7237 191.135 77.7131 191.138 77.702 191.14L77.688 191.147Z" fill="black"/>
<path d="M55.316 11.8632C55.239 12.2692 55.4 12.6332 55.666 12.6822C55.932 12.7312 56.205 12.4372 56.275 12.0242C56.345 11.6112 56.191 11.2542 55.925 11.2052C55.659 11.1562 55.4 11.4502 55.316 11.8632Z" fill="#263238"/>
<path d="M59.922 12.6471C59.852 13.0531 60.006 13.4171 60.272 13.4661C60.538 13.5151 60.811 13.2211 60.888 12.8081C60.965 12.3951 60.797 12.0381 60.531 11.9891C60.265 11.9401 59.992 12.2481 59.922 12.6471Z" fill="#263238"/>
<path d="M58.417 12.6052C58.69 13.9342 59.1421 15.2199 59.761 16.4272C59.4465 16.5742 59.1036 16.6503 58.7565 16.6503C58.4094 16.6503 58.0665 16.5742 57.752 16.4272L58.417 12.6052Z" fill="#892B29"/>
<path d="M56.373 17.3791C56.4044 17.3834 56.4362 17.3756 56.4621 17.3575C56.4881 17.3393 56.5062 17.3121 56.513 17.2811C56.516 17.2655 56.5158 17.2494 56.5125 17.2338C56.5092 17.2182 56.5028 17.2034 56.4936 17.1904C56.4845 17.1773 56.4728 17.1662 56.4593 17.1578C56.4458 17.1493 56.4307 17.1437 56.415 17.1411C55.9082 17.0667 55.4259 16.8748 55.0065 16.5806C54.5872 16.2865 54.2425 15.8983 54 15.4471C53.9862 15.4181 53.9619 15.3954 53.932 15.3837C53.9021 15.372 53.8688 15.3721 53.839 15.3841C53.824 15.3902 53.8104 15.3993 53.799 15.4108C53.7876 15.4223 53.7787 15.436 53.7728 15.4511C53.7669 15.4661 53.7642 15.4822 53.7647 15.4984C53.7653 15.5146 53.7691 15.5305 53.776 15.5451C54.0333 16.0341 54.4028 16.4553 54.8542 16.774C55.3056 17.0928 55.8261 17.3001 56.373 17.3791Z" fill="#263238"/>
<path d="M54.182 10.1343C54.2195 10.1408 54.258 10.1385 54.2945 10.1276C54.3309 10.1166 54.3643 10.0973 54.392 10.0713C54.6089 9.85874 54.8726 9.69993 55.1619 9.60755C55.4512 9.51518 55.7581 9.49178 56.058 9.53925C56.1202 9.5542 56.1857 9.54427 56.2406 9.51157C56.2956 9.47888 56.3355 9.42601 56.352 9.36425C56.3615 9.33344 56.3643 9.30099 56.3605 9.269C56.3566 9.23701 56.3461 9.20618 56.3296 9.17849C56.3132 9.1508 56.2911 9.12687 56.2648 9.10823C56.2385 9.08959 56.2086 9.07665 56.177 9.07025C55.801 9.0022 55.4141 9.02515 55.0488 9.13719C54.6835 9.24923 54.3503 9.44709 54.077 9.71425C54.0317 9.76122 54.0063 9.82396 54.0063 9.88925C54.0063 9.95453 54.0317 10.0173 54.077 10.0642C54.1065 10.0949 54.1424 10.1188 54.182 10.1343Z" fill="#263238"/>
<path d="M62.274 11.3802C62.3086 11.3872 62.3443 11.3872 62.379 11.3802C62.4094 11.3693 62.4373 11.3525 62.4612 11.3307C62.485 11.3089 62.5044 11.2826 62.518 11.2533C62.5317 11.2241 62.5394 11.1924 62.5408 11.1601C62.5422 11.1278 62.5371 11.0956 62.526 11.0652C62.4029 10.6998 62.1947 10.3688 61.9183 10.0998C61.642 9.83081 61.3056 9.63145 60.937 9.51824C60.8739 9.50353 60.8075 9.51442 60.7524 9.54853C60.6973 9.58264 60.658 9.63718 60.643 9.70024C60.6301 9.76321 60.6418 9.82872 60.6756 9.88337C60.7094 9.93803 60.7629 9.97769 60.825 9.99424C61.1166 10.086 61.382 10.2464 61.5988 10.462C61.8156 10.6776 61.9776 10.9421 62.071 11.2332C62.0863 11.2752 62.1138 11.3116 62.15 11.3378C62.1862 11.364 62.2294 11.3788 62.274 11.3802Z" fill="#263238"/>
<path d="M67.153 32.0302L61 36.1741C61 36.1741 69.876 51.9592 69.127 54.4862C68.112 57.9302 66.698 65.4621 64.773 69.2771C65.025 70.1031 66.306 71.9862 67.02 72.3152C71.92 68.5842 76.876 56.9152 76.687 53.6462C76.239 46.2472 67.153 32.0302 67.153 32.0302Z" fill="#9F5B53"/>
<path d="M65.69 28.5722C70.541 29.2722 76.099 46.0722 76.099 46.0722L65.9 51.8472C65.9 51.8472 61.413 43.8532 59.194 37.9102C56.884 31.6942 60.482 27.8162 65.69 28.5722Z" fill="#FFB347"/>
<path opacity="0.6" d="M65.69 28.5722C70.541 29.2722 76.099 46.0722 76.099 46.0722L65.9 51.8472C65.9 51.8472 61.413 43.8532 59.194 37.9102C56.884 31.6942 60.482 27.8162 65.69 28.5722Z" fill="#FAFAFA"/>
<path d="M73.656 203.922C73.3071 203.951 72.959 203.859 72.669 203.663C72.5783 203.584 72.5081 203.484 72.4642 203.372C72.4204 203.26 72.4042 203.139 72.417 203.019C72.4185 202.949 72.4387 202.88 72.4756 202.819C72.5125 202.759 72.5648 202.71 72.627 202.676C73.187 202.389 74.846 203.376 75.035 203.523C75.0557 203.535 75.0722 203.552 75.0823 203.574C75.0924 203.595 75.0954 203.619 75.091 203.642C75.0874 203.666 75.0768 203.688 75.0606 203.705C75.0443 203.723 75.0232 203.735 75 203.74C74.5607 203.853 74.1096 203.915 73.656 203.922ZM72.9 202.865C72.8494 202.853 72.7966 202.853 72.746 202.865C72.711 202.865 72.676 202.914 72.669 203.012C72.658 203.093 72.667 203.176 72.695 203.253C72.7231 203.329 72.7694 203.398 72.83 203.453C73.4036 203.711 74.0535 203.744 74.65 203.544C74.1164 203.206 73.5219 202.976 72.9 202.865Z" fill="#FFB347"/>
<path d="M75 203.747H74.937C74.405 203.453 73.383 202.347 73.488 201.759C73.5073 201.67 73.5567 201.589 73.6281 201.532C73.6995 201.475 73.7884 201.444 73.88 201.444C73.9723 201.431 74.0665 201.438 74.1559 201.464C74.2454 201.491 74.3279 201.537 74.398 201.598C74.993 202.088 75.098 203.565 75.098 203.628C75.0975 203.65 75.0922 203.671 75.0825 203.69C75.0728 203.71 75.059 203.727 75.042 203.74L75 203.747ZM73.964 201.647H73.908C73.747 201.647 73.733 201.738 73.733 201.773C73.663 202.109 74.321 202.956 74.846 203.362C74.8119 202.777 74.6021 202.216 74.244 201.752C74.1581 201.68 74.0482 201.642 73.936 201.647H73.964Z" fill="#FFB347"/>
<path d="M42.8 203.929C42.3612 203.966 41.9228 203.855 41.554 203.614C41.4724 203.54 41.4095 203.447 41.3706 203.344C41.3316 203.24 41.3177 203.129 41.33 203.019C41.3323 202.952 41.3524 202.887 41.388 202.831C41.4237 202.774 41.4737 202.728 41.533 202.697C42.149 202.347 44.214 203.397 44.445 203.516C44.4693 203.526 44.4892 203.544 44.5008 203.567C44.5124 203.59 44.515 203.617 44.508 203.642C44.5054 203.666 44.4951 203.689 44.4788 203.706C44.4624 203.724 44.4407 203.736 44.417 203.74C43.8855 203.856 43.3439 203.919 42.8 203.929ZM41.876 202.865C41.7968 202.862 41.7179 202.876 41.645 202.907C41.6217 202.921 41.6023 202.94 41.5887 202.963C41.5752 202.987 41.5681 203.013 41.568 203.04C41.5615 203.112 41.5714 203.185 41.5968 203.253C41.6223 203.321 41.6627 203.382 41.715 203.432C42.037 203.712 42.877 203.754 44.011 203.572C43.3513 203.219 42.6365 202.98 41.897 202.865H41.876Z" fill="#FFB347"/>
<path d="M44.41 203.747H44.361C43.745 203.474 42.52 202.347 42.611 201.78C42.611 201.647 42.73 201.479 43.066 201.444C43.191 201.425 43.3187 201.433 43.4398 201.47C43.5609 201.506 43.6724 201.569 43.766 201.654C44.417 202.186 44.557 203.565 44.564 203.628C44.564 203.649 44.559 203.669 44.5492 203.688C44.5394 203.706 44.5253 203.722 44.508 203.733C44.4948 203.745 44.4785 203.752 44.4611 203.755C44.4437 203.757 44.426 203.755 44.41 203.747ZM43.164 201.647H43.087C42.87 201.647 42.856 201.759 42.849 201.787C42.793 202.137 43.626 203.005 44.249 203.383C44.1818 202.797 43.9376 202.245 43.549 201.801C43.4409 201.709 43.3057 201.655 43.164 201.647Z" fill="#FFB347"/>
<path d="M64.752 69.2772L59.852 68.8992L62.421 74.3032C62.421 74.3032 66.698 74.4922 67.412 71.2232L64.752 69.2772Z" fill="#9F5B53"/>
<path d="M55.911 71.3632L58.473 76.1372L62.442 74.2962L59.873 68.8992L55.911 71.3632Z" fill="#9F5B53"/>
<path d="M25.062 209.375H18.216L2.68298 41.5571L9.45898 40.9271L25.062 209.375Z" fill="#FFB347"/>
<path opacity="0.3" d="M25.062 209.375H18.216L2.68298 41.5571L9.45898 40.9271L25.062 209.375Z" fill="#FAFAFA"/>
<path d="M38.726 209.375H31.894L16.235 40.3042L23.011 39.6742L38.726 209.375Z" fill="#FFB347"/>
<path opacity="0.3" d="M38.726 209.375H31.894L16.235 40.3042L23.011 39.6742L38.726 209.375Z" fill="#FAFAFA"/>
<path d="M31.894 209.375H25.062L9.45898 40.9272L16.235 40.3042L31.894 209.375Z" fill="#FFB347"/>
<path opacity="0.4" d="M31.894 209.375H25.062L9.45898 40.9272L16.235 40.3042L31.894 209.375Z" fill="#FAFAFA"/>
<path d="M14.807 28.5721L8.70998 29.1391L2.68298 41.5571L23.011 39.6741L14.807 28.5721Z" fill="#FFB347"/>
<path opacity="0.8" d="M14.807 28.5721L8.70998 29.1391L2.68298 41.5571L23.011 39.6741L14.807 28.5721Z" fill="#FAFAFA"/>
<path d="M11.286 23.8121L8.70996 29.1391L14.807 28.5721L11.286 23.8121Z" fill="#FFB347"/>
<path opacity="0.4" d="M11.286 23.8121L8.70996 29.1391L14.807 28.5721L11.286 23.8121Z" fill="#FAFAFA"/>
<path d="M194.952 17.0921L187 16.2101C187.029 21.6665 186.508 27.112 185.446 32.4641L182.702 46.2051L190.647 47.0871L193.391 33.3461C194.454 27.9941 194.974 22.5485 194.945 17.0921H194.952Z" fill="#FFB347"/>
<path opacity="0.4" d="M194.952 17.0921L187 16.2101C187.029 21.6665 186.508 27.112 185.446 32.4641L182.702 46.2051L190.647 47.0871L193.391 33.3461C194.454 27.9941 194.974 22.5485 194.945 17.0921H194.952Z" fill="#FAFAFA"/>
<path d="M207.664 33.4722H84.989L69.785 209.382H192.46L207.664 33.4722Z" fill="#FFB347"/>
<path opacity="0.8" d="M207.664 33.4722H84.989L69.785 209.382H192.46L207.664 33.4722Z" fill="#FAFAFA"/>
<path d="M193.209 200.667H70.541L69.785 209.382H192.46L193.209 200.667Z" fill="#FFB347"/>
<path opacity="0.4" d="M193.209 200.667H70.541L69.785 209.382H192.46L193.209 200.667Z" fill="#FAFAFA"/>
<path d="M199.67 33.4722H76.995L61.791 209.382H184.466L199.67 33.4722Z" fill="#FAFAFA"/>
<path d="M185.215 200.667H62.547L61.791 209.382H184.466L185.215 200.667Z" fill="#FFB347"/>
<path opacity="0.6" d="M185.215 200.667H62.547L61.791 209.382H184.466L185.215 200.667Z" fill="#FAFAFA"/>
<path d="M191.27 42.2991H83.883C83.8637 42.2991 83.8446 42.2953 83.8268 42.2879C83.8089 42.2805 83.7927 42.2697 83.7791 42.2561C83.7654 42.2424 83.7546 42.2262 83.7472 42.2084C83.7398 42.1905 83.736 42.1714 83.736 42.1521C83.7377 42.1137 83.7538 42.0773 83.781 42.0501C83.8082 42.0229 83.8446 42.0068 83.883 42.0051H191.27C191.31 42.0051 191.348 42.0203 191.377 42.0477C191.405 42.0751 191.422 42.1125 191.424 42.1521C191.424 42.172 191.42 42.1917 191.412 42.21C191.404 42.2284 191.393 42.2449 191.379 42.2586C191.364 42.2724 191.347 42.2831 191.328 42.29C191.31 42.297 191.29 42.3001 191.27 42.2991Z" fill="#FFB347"/>
<path d="M190.661 49.3621H83.274C83.235 49.3621 83.1976 49.3466 83.1701 49.3191C83.1425 49.2915 83.127 49.2541 83.127 49.2151C83.1287 49.1767 83.1448 49.1403 83.172 49.1131C83.1992 49.0859 83.2356 49.0698 83.274 49.0681H190.661C190.7 49.0681 190.737 49.0836 190.765 49.1112C190.793 49.1387 190.808 49.1761 190.808 49.2151C190.808 49.2541 190.793 49.2915 190.765 49.3191C190.737 49.3466 190.7 49.3621 190.661 49.3621Z" fill="#FFB347"/>
<path d="M190.052 56.4251H82.7C82.6611 56.4251 82.6237 56.4096 82.5961 56.382C82.5685 56.3545 82.553 56.3171 82.553 56.2781C82.553 56.2391 82.5685 56.2017 82.5961 56.1742C82.6237 56.1466 82.6611 56.1311 82.7 56.1311H190.052C190.091 56.1311 190.128 56.1466 190.156 56.1742C190.184 56.2017 190.199 56.2391 190.199 56.2781C190.199 56.3171 190.184 56.3545 190.156 56.382C190.128 56.4096 190.091 56.4251 190.052 56.4251Z" fill="#FFB347"/>
<path d="M189.443 63.4881H82.056C82.017 63.4881 81.9796 63.4726 81.9521 63.445C81.9245 63.4175 81.909 63.3801 81.909 63.3411C81.909 63.3021 81.9245 63.2647 81.9521 63.2371C81.9796 63.2096 82.017 63.1941 82.056 63.1941H189.443C189.462 63.1941 189.481 63.1979 189.499 63.2053C189.517 63.2127 189.533 63.2235 189.547 63.2371C189.561 63.2508 189.571 63.267 189.579 63.2848C189.586 63.3027 189.59 63.3218 189.59 63.3411C189.59 63.3604 189.586 63.3795 189.579 63.3973C189.571 63.4152 189.561 63.4314 189.547 63.445C189.533 63.4587 189.517 63.4695 189.499 63.4769C189.481 63.4843 189.462 63.4881 189.443 63.4881Z" fill="#FFB347"/>
<path d="M188.834 70.5511H81.4471C81.4081 70.5511 81.3707 70.5356 81.3431 70.508C81.3155 70.4805 81.3 70.4431 81.3 70.4041C81.3 70.3651 81.3155 70.3277 81.3431 70.3001C81.3707 70.2726 81.4081 70.2571 81.4471 70.2571H188.834C188.873 70.2571 188.91 70.2726 188.938 70.3001C188.966 70.3277 188.981 70.3651 188.981 70.4041C188.981 70.4431 188.966 70.4805 188.938 70.508C188.91 70.5356 188.873 70.5511 188.834 70.5511Z" fill="#FFB347"/>
<path d="M188.218 77.6141H80.838C80.799 77.6141 80.7617 77.5986 80.7341 77.571C80.7065 77.5434 80.691 77.5061 80.691 77.4671C80.691 77.4281 80.7065 77.3907 80.7341 77.3631C80.7617 77.3356 80.799 77.3201 80.838 77.3201H188.218C188.257 77.3201 188.294 77.3356 188.322 77.3631C188.35 77.3907 188.365 77.4281 188.365 77.4671C188.365 77.5061 188.35 77.5434 188.322 77.571C188.294 77.5986 188.257 77.6141 188.218 77.6141Z" fill="#FFB347"/>
<path d="M187.609 84.6772H80.222C80.183 84.6772 80.1456 84.6617 80.1181 84.6341C80.0905 84.6066 80.075 84.5692 80.075 84.5302C80.075 84.4912 80.0905 84.4538 80.1181 84.4262C80.1456 84.3987 80.183 84.3832 80.222 84.3832H187.609C187.648 84.3832 187.685 84.3987 187.713 84.4262C187.741 84.4538 187.756 84.4912 187.756 84.5302C187.756 84.5692 187.741 84.6066 187.713 84.6341C187.685 84.6617 187.648 84.6772 187.609 84.6772Z" fill="#FFB347"/>
<path d="M187 91.7471H79.613C79.574 91.7471 79.5366 91.7316 79.5091 91.7041C79.4815 91.6765 79.466 91.6391 79.466 91.6001C79.466 91.5611 79.4815 91.5237 79.5091 91.4962C79.5366 91.4686 79.574 91.4531 79.613 91.4531H187C187.039 91.4531 187.076 91.4686 187.104 91.4962C187.132 91.5237 187.147 91.5611 187.147 91.6001C187.147 91.6391 187.132 91.6765 187.104 91.7041C187.076 91.7316 187.039 91.7471 187 91.7471Z" fill="#FFB347"/>
<path d="M186.391 98.8031H79.004C78.965 98.8031 78.9276 98.7877 78.9001 98.7601C78.8725 98.7325 78.857 98.6951 78.857 98.6561C78.857 98.6172 78.8725 98.5798 78.9001 98.5522C78.9276 98.5246 78.965 98.5092 79.004 98.5092H186.391C186.43 98.5092 186.467 98.5246 186.495 98.5522C186.523 98.5798 186.538 98.6172 186.538 98.6561C186.538 98.6951 186.523 98.7325 186.495 98.7601C186.467 98.7877 186.43 98.8031 186.391 98.8031Z" fill="#FFB347"/>
<path d="M185.782 105.866H78.395C78.356 105.866 78.3186 105.851 78.291 105.823C78.2635 105.796 78.248 105.758 78.248 105.719C78.248 105.68 78.2635 105.643 78.291 105.615C78.3186 105.588 78.356 105.572 78.395 105.572H185.782C185.821 105.572 185.858 105.588 185.886 105.615C185.913 105.643 185.929 105.68 185.929 105.719C185.927 105.758 185.911 105.794 185.884 105.821C185.857 105.848 185.82 105.864 185.782 105.866Z" fill="#FFB347"/>
<path d="M185.166 112.929H77.8C77.7776 112.934 77.7543 112.934 77.7319 112.929C77.7095 112.923 77.6886 112.913 77.6707 112.899C77.6528 112.884 77.6384 112.866 77.6285 112.845C77.6186 112.824 77.6134 112.802 77.6134 112.779C77.6134 112.756 77.6186 112.733 77.6285 112.712C77.6384 112.691 77.6528 112.673 77.6707 112.659C77.6886 112.644 77.7095 112.634 77.7319 112.629C77.7543 112.623 77.7776 112.623 77.8 112.628H185.18C185.203 112.623 185.226 112.623 185.248 112.629C185.271 112.634 185.291 112.644 185.309 112.659C185.327 112.673 185.342 112.691 185.352 112.712C185.362 112.733 185.367 112.756 185.367 112.779C185.367 112.802 185.362 112.824 185.352 112.845C185.342 112.866 185.327 112.884 185.309 112.899C185.291 112.913 185.271 112.923 185.248 112.929C185.226 112.934 185.203 112.934 185.18 112.929H185.166Z" fill="#FFB347"/>
<path d="M184.557 119.992H77.17C77.1356 119.985 77.1048 119.966 77.0828 119.938C77.0607 119.911 77.0486 119.877 77.0486 119.842C77.0486 119.806 77.0607 119.772 77.0828 119.745C77.1048 119.718 77.1356 119.699 77.17 119.691H184.557C184.577 119.691 184.597 119.695 184.615 119.703C184.633 119.711 184.65 119.722 184.663 119.737C184.677 119.751 184.688 119.768 184.695 119.787C184.702 119.805 184.705 119.825 184.704 119.845C184.704 119.884 184.688 119.922 184.661 119.949C184.633 119.977 184.596 119.992 184.557 119.992Z" fill="#FFB347"/>
<path d="M183.948 127.055H76.561C76.5411 127.055 76.5214 127.051 76.5031 127.043C76.4848 127.036 76.4682 127.024 76.4545 127.01C76.4407 126.995 76.4301 126.978 76.4231 126.96C76.4161 126.941 76.413 126.921 76.414 126.901C76.414 126.862 76.4295 126.825 76.457 126.797C76.4846 126.77 76.522 126.754 76.561 126.754H183.948C183.987 126.754 184.024 126.77 184.052 126.797C184.079 126.825 184.095 126.862 184.095 126.901C184.096 126.921 184.093 126.941 184.086 126.96C184.079 126.978 184.068 126.995 184.054 127.01C184.041 127.024 184.024 127.036 184.006 127.043C183.988 127.051 183.968 127.055 183.948 127.055Z" fill="#FFB347"/>
<path d="M183.339 134.118H75.952C75.9321 134.118 75.9124 134.114 75.8941 134.106C75.8757 134.098 75.8592 134.087 75.8455 134.073C75.8317 134.058 75.8211 134.041 75.8141 134.023C75.8071 134.004 75.804 133.984 75.805 133.964C75.805 133.925 75.8205 133.888 75.848 133.86C75.8756 133.833 75.913 133.817 75.952 133.817H183.339C183.373 133.825 183.404 133.844 183.426 133.871C183.448 133.898 183.46 133.932 183.46 133.968C183.46 134.003 183.448 134.037 183.426 134.064C183.404 134.092 183.373 134.111 183.339 134.118Z" fill="#FFB347"/>
<path d="M182.73 141.181H75.343C75.3231 141.181 75.3034 141.177 75.2851 141.169C75.2668 141.161 75.2503 141.15 75.2365 141.136C75.2228 141.121 75.2121 141.104 75.2051 141.086C75.1982 141.067 75.1951 141.047 75.196 141.027C75.196 140.988 75.2115 140.951 75.2391 140.923C75.2667 140.896 75.304 140.88 75.343 140.88H182.73C182.764 140.888 182.795 140.907 182.817 140.934C182.839 140.961 182.851 140.995 182.851 141.031C182.851 141.066 182.839 141.1 182.817 141.127C182.795 141.155 182.764 141.174 182.73 141.181Z" fill="#FFB347"/>
<path d="M182.1 148.244H74.734C74.7115 148.249 74.6883 148.249 74.6659 148.244C74.6435 148.238 74.6226 148.228 74.6047 148.214C74.5868 148.199 74.5724 148.181 74.5624 148.16C74.5525 148.139 74.5474 148.117 74.5474 148.094C74.5474 148.071 74.5525 148.048 74.5624 148.027C74.5724 148.007 74.5868 147.988 74.6047 147.974C74.6226 147.959 74.6435 147.949 74.6659 147.944C74.6883 147.939 74.7115 147.938 74.734 147.943H182.1C182.122 147.938 182.146 147.939 182.168 147.944C182.191 147.949 182.211 147.959 182.229 147.974C182.247 147.988 182.262 148.007 182.272 148.027C182.282 148.048 182.287 148.071 182.287 148.094C182.287 148.117 182.282 148.139 182.272 148.16C182.262 148.181 182.247 148.199 182.229 148.214C182.211 148.228 182.191 148.238 182.168 148.244C182.146 148.249 182.122 148.249 182.1 148.244Z" fill="#FFB347"/>
<path d="M181.505 155.3H74.118C74.079 155.3 74.0416 155.285 74.0141 155.257C73.9865 155.229 73.971 155.192 73.971 155.153C73.971 155.114 73.9865 155.077 74.0141 155.049C74.0416 155.022 74.079 155.006 74.118 155.006H181.505C181.544 155.006 181.581 155.022 181.609 155.049C181.637 155.077 181.652 155.114 181.652 155.153C181.652 155.192 181.637 155.229 181.609 155.257C181.581 155.285 181.544 155.3 181.505 155.3Z" fill="#FFB347"/>
<path d="M180.896 162.363H73.509C73.47 162.363 73.4326 162.348 73.4051 162.32C73.3775 162.292 73.362 162.255 73.362 162.216C73.362 162.177 73.3775 162.14 73.4051 162.112C73.4326 162.085 73.47 162.069 73.509 162.069H180.896C180.935 162.069 180.972 162.085 181 162.112C181.028 162.14 181.043 162.177 181.043 162.216C181.043 162.255 181.028 162.292 181 162.32C180.972 162.348 180.935 162.363 180.896 162.363Z" fill="#FFB347"/>
<path d="M180.287 169.447H72.9C72.861 169.447 72.8236 169.432 72.796 169.404C72.7685 169.376 72.753 169.339 72.753 169.3C72.753 169.261 72.7685 169.224 72.796 169.196C72.8236 169.169 72.861 169.153 72.9 169.153H180.287C180.326 169.153 180.363 169.169 180.391 169.196C180.419 169.224 180.434 169.261 180.434 169.3C180.434 169.339 180.419 169.376 180.391 169.404C180.363 169.432 180.326 169.447 180.287 169.447Z" fill="#FFB347"/>
<path d="M179.678 176.489H72.291C72.2521 176.489 72.2147 176.474 72.1871 176.446C72.1595 176.418 72.144 176.381 72.144 176.342C72.144 176.303 72.1595 176.266 72.1871 176.238C72.2147 176.211 72.2521 176.195 72.291 176.195H179.678C179.717 176.195 179.754 176.211 179.782 176.238C179.81 176.266 179.825 176.303 179.825 176.342C179.825 176.381 179.81 176.418 179.782 176.446C179.754 176.474 179.717 176.489 179.678 176.489Z" fill="#FFB347"/>
<path d="M179.062 183.552H71.682C71.643 183.552 71.6057 183.537 71.5781 183.509C71.5505 183.482 71.535 183.444 71.535 183.405C71.535 183.366 71.5505 183.329 71.5781 183.301C71.6057 183.274 71.643 183.258 71.682 183.258H179.062C179.101 183.258 179.138 183.274 179.166 183.301C179.194 183.329 179.209 183.366 179.209 183.405C179.209 183.444 179.194 183.482 179.166 183.509C179.138 183.537 179.101 183.552 179.062 183.552Z" fill="#FFB347"/>
<path d="M178.453 190.615H71.066C71.027 190.615 70.9896 190.6 70.9621 190.572C70.9345 190.545 70.919 190.507 70.919 190.468C70.919 190.429 70.9345 190.392 70.9621 190.364C70.9896 190.337 71.027 190.321 71.066 190.321H178.453C178.492 190.321 178.529 190.337 178.557 190.364C178.585 190.392 178.6 190.429 178.6 190.468C178.6 190.507 178.585 190.545 178.557 190.572C178.529 190.6 178.492 190.615 178.453 190.615Z" fill="#FFB347"/>
<g opacity="0.5">
<path opacity="0.5" d="M191.27 42.2991H83.883C83.8637 42.2991 83.8446 42.2953 83.8268 42.2879C83.8089 42.2805 83.7927 42.2697 83.7791 42.2561C83.7654 42.2424 83.7546 42.2262 83.7472 42.2084C83.7398 42.1905 83.736 42.1714 83.736 42.1521C83.7377 42.1137 83.7538 42.0773 83.781 42.0501C83.8082 42.0229 83.8446 42.0068 83.883 42.0051H191.27C191.31 42.0051 191.348 42.0203 191.377 42.0477C191.405 42.0751 191.422 42.1125 191.424 42.1521C191.424 42.172 191.42 42.1917 191.412 42.21C191.404 42.2284 191.393 42.2449 191.379 42.2586C191.364 42.2724 191.347 42.2831 191.328 42.29C191.31 42.297 191.29 42.3001 191.27 42.2991Z" fill="#FAFAFA"/>
<path opacity="0.5" d="M190.661 49.3621H83.274C83.235 49.3621 83.1976 49.3466 83.1701 49.3191C83.1425 49.2915 83.127 49.2541 83.127 49.2151C83.1287 49.1767 83.1448 49.1403 83.172 49.1131C83.1992 49.0859 83.2356 49.0698 83.274 49.0681H190.661C190.7 49.0681 190.737 49.0836 190.765 49.1112C190.793 49.1387 190.808 49.1761 190.808 49.2151C190.808 49.2541 190.793 49.2915 190.765 49.3191C190.737 49.3466 190.7 49.3621 190.661 49.3621Z" fill="#FAFAFA"/>
<path opacity="0.5" d="M190.052 56.4251H82.7C82.661 56.4251 82.6236 56.4096 82.596 56.382C82.5685 56.3545 82.553 56.3171 82.553 56.2781C82.553 56.2391 82.5685 56.2017 82.596 56.1742C82.6236 56.1466 82.661 56.1311 82.7 56.1311H190.052C190.091 56.1311 190.128 56.1466 190.156 56.1742C190.183 56.2017 190.199 56.2391 190.199 56.2781C190.199 56.3171 190.183 56.3545 190.156 56.382C190.128 56.4096 190.091 56.4251 190.052 56.4251Z" fill="#FAFAFA"/>
<path opacity="0.5" d="M189.443 63.4881H82.056C82.017 63.4881 81.9796 63.4726 81.9521 63.445C81.9245 63.4175 81.909 63.3801 81.909 63.3411C81.909 63.3021 81.9245 63.2647 81.9521 63.2371C81.9796 63.2096 82.017 63.1941 82.056 63.1941H189.443C189.462 63.1941 189.481 63.1979 189.499 63.2053C189.517 63.2127 189.533 63.2235 189.547 63.2371C189.561 63.2508 189.571 63.267 189.579 63.2848C189.586 63.3027 189.59 63.3218 189.59 63.3411C189.59 63.3604 189.586 63.3795 189.579 63.3973C189.571 63.4152 189.561 63.4314 189.547 63.445C189.533 63.4587 189.517 63.4695 189.499 63.4769C189.481 63.4843 189.462 63.4881 189.443 63.4881Z" fill="#FAFAFA"/>
<path opacity="0.5" d="M188.834 70.5511H81.447C81.408 70.5511 81.3706 70.5356 81.343 70.508C81.3155 70.4805 81.3 70.4431 81.3 70.4041C81.3 70.3651 81.3155 70.3277 81.343 70.3001C81.3706 70.2726 81.408 70.2571 81.447 70.2571H188.834C188.873 70.2571 188.91 70.2726 188.938 70.3001C188.965 70.3277 188.981 70.3651 188.981 70.4041C188.981 70.4431 188.965 70.4805 188.938 70.508C188.91 70.5356 188.873 70.5511 188.834 70.5511Z" fill="#FAFAFA"/>
<path opacity="0.5" d="M188.218 77.6142H80.838C80.799 77.6142 80.7616 77.5987 80.734 77.5711C80.7065 77.5436 80.691 77.5062 80.691 77.4672C80.691 77.4282 80.7065 77.3908 80.734 77.3632C80.7616 77.3357 80.799 77.3202 80.838 77.3202H188.218C188.257 77.3202 188.294 77.3357 188.322 77.3632C188.349 77.3908 188.365 77.4282 188.365 77.4672C188.365 77.5062 188.349 77.5436 188.322 77.5711C188.294 77.5987 188.257 77.6142 188.218 77.6142Z" fill="#FAFAFA"/>
<path opacity="0.5" d="M187.609 84.6772H80.222C80.183 84.6772 80.1456 84.6617 80.1181 84.6341C80.0905 84.6066 80.075 84.5692 80.075 84.5302C80.075 84.4912 80.0905 84.4538 80.1181 84.4262C80.1456 84.3987 80.183 84.3832 80.222 84.3832H187.609C187.648 84.3832 187.685 84.3987 187.713 84.4262C187.741 84.4538 187.756 84.4912 187.756 84.5302C187.756 84.5692 187.741 84.6066 187.713 84.6341C187.685 84.6617 187.648 84.6772 187.609 84.6772Z" fill="#FAFAFA"/>
<path opacity="0.5" d="M187 91.7471H79.613C79.574 91.7471 79.5366 91.7316 79.5091 91.7041C79.4815 91.6765 79.466 91.6391 79.466 91.6001C79.466 91.5611 79.4815 91.5237 79.5091 91.4962C79.5366 91.4686 79.574 91.4531 79.613 91.4531H187C187.039 91.4531 187.076 91.4686 187.104 91.4962C187.132 91.5237 187.147 91.5611 187.147 91.6001C187.147 91.6391 187.132 91.6765 187.104 91.7041C187.076 91.7316 187.039 91.7471 187 91.7471Z" fill="#FAFAFA"/>
<path opacity="0.5" d="M186.391 98.8031H79.004C78.965 98.8031 78.9276 98.7877 78.9001 98.7601C78.8725 98.7325 78.857 98.6951 78.857 98.6561C78.857 98.6172 78.8725 98.5798 78.9001 98.5522C78.9276 98.5246 78.965 98.5092 79.004 98.5092H186.391C186.43 98.5092 186.467 98.5246 186.495 98.5522C186.523 98.5798 186.538 98.6172 186.538 98.6561C186.538 98.6951 186.523 98.7325 186.495 98.7601C186.467 98.7877 186.43 98.8031 186.391 98.8031Z" fill="#FAFAFA"/>
<path opacity="0.5" d="M185.782 105.866H78.395C78.356 105.866 78.3186 105.851 78.291 105.823C78.2635 105.796 78.248 105.758 78.248 105.719C78.248 105.68 78.2635 105.643 78.291 105.615C78.3186 105.588 78.356 105.572 78.395 105.572H185.782C185.821 105.572 185.858 105.588 185.886 105.615C185.913 105.643 185.929 105.68 185.929 105.719C185.927 105.758 185.911 105.794 185.884 105.821C185.857 105.848 185.82 105.864 185.782 105.866Z" fill="#FAFAFA"/>
<path opacity="0.5" d="M185.166 112.929H77.8C77.7775 112.934 77.7542 112.934 77.7319 112.929C77.7095 112.923 77.6886 112.913 77.6707 112.899C77.6528 112.884 77.6383 112.866 77.6284 112.845C77.6185 112.824 77.6133 112.802 77.6133 112.779C77.6133 112.756 77.6185 112.733 77.6284 112.712C77.6383 112.691 77.6528 112.673 77.6707 112.659C77.6886 112.644 77.7095 112.634 77.7319 112.629C77.7542 112.623 77.7775 112.623 77.8 112.628H185.18C185.202 112.623 185.226 112.623 185.248 112.629C185.27 112.634 185.291 112.644 185.309 112.659C185.327 112.673 185.342 112.691 185.352 112.712C185.361 112.733 185.367 112.756 185.367 112.779C185.367 112.802 185.361 112.824 185.352 112.845C185.342 112.866 185.327 112.884 185.309 112.899C185.291 112.913 185.27 112.923 185.248 112.929C185.226 112.934 185.202 112.934 185.18 112.929H185.166Z" fill="#FAFAFA"/>
<path opacity="0.5" d="M184.557 119.992H77.17C77.1356 119.985 77.1048 119.966 77.0828 119.938C77.0607 119.911 77.0486 119.877 77.0486 119.842C77.0486 119.806 77.0607 119.772 77.0828 119.745C77.1048 119.718 77.1356 119.699 77.17 119.691H184.557C184.577 119.691 184.597 119.695 184.615 119.703C184.633 119.711 184.65 119.722 184.663 119.737C184.677 119.751 184.688 119.768 184.695 119.787C184.702 119.805 184.705 119.825 184.704 119.845C184.704 119.884 184.688 119.922 184.661 119.949C184.633 119.977 184.596 119.992 184.557 119.992Z" fill="#FAFAFA"/>
<path opacity="0.5" d="M183.948 127.055H76.561C76.5411 127.055 76.5214 127.051 76.5031 127.043C76.4848 127.036 76.4682 127.024 76.4545 127.01C76.4407 126.995 76.4301 126.978 76.4231 126.96C76.4161 126.941 76.413 126.921 76.414 126.901C76.414 126.862 76.4295 126.825 76.457 126.797C76.4846 126.77 76.522 126.754 76.561 126.754H183.948C183.987 126.754 184.024 126.77 184.052 126.797C184.079 126.825 184.095 126.862 184.095 126.901C184.096 126.921 184.093 126.941 184.086 126.96C184.079 126.978 184.068 126.995 184.054 127.01C184.041 127.024 184.024 127.036 184.006 127.043C183.988 127.051 183.968 127.055 183.948 127.055Z" fill="#FAFAFA"/>
<path opacity="0.5" d="M183.339 134.118H75.952C75.9321 134.118 75.9124 134.114 75.8941 134.106C75.8757 134.098 75.8592 134.087 75.8455 134.073C75.8317 134.058 75.8211 134.041 75.8141 134.023C75.8071 134.004 75.804 133.984 75.805 133.964C75.805 133.925 75.8205 133.888 75.848 133.86C75.8756 133.833 75.913 133.817 75.952 133.817H183.339C183.373 133.825 183.404 133.844 183.426 133.871C183.448 133.898 183.46 133.932 183.46 133.968C183.46 134.003 183.448 134.037 183.426 134.064C183.404 134.092 183.373 134.111 183.339 134.118Z" fill="#FAFAFA"/>
<path opacity="0.5" d="M182.73 141.181H75.343C75.3231 141.181 75.3034 141.177 75.285 141.169C75.2667 141.161 75.2502 141.15 75.2365 141.136C75.2227 141.121 75.212 141.104 75.2051 141.086C75.1981 141.067 75.195 141.047 75.196 141.027C75.196 140.988 75.2115 140.951 75.239 140.923C75.2666 140.896 75.304 140.88 75.343 140.88H182.73C182.764 140.888 182.795 140.907 182.817 140.934C182.839 140.961 182.851 140.995 182.851 141.031C182.851 141.066 182.839 141.1 182.817 141.127C182.795 141.155 182.764 141.174 182.73 141.181Z" fill="#FAFAFA"/>
<path opacity="0.5" d="M182.1 148.244H74.734C74.7115 148.249 74.6883 148.249 74.6659 148.244C74.6435 148.238 74.6226 148.228 74.6047 148.214C74.5868 148.199 74.5724 148.181 74.5624 148.16C74.5525 148.139 74.5474 148.117 74.5474 148.094C74.5474 148.071 74.5525 148.048 74.5624 148.027C74.5724 148.007 74.5868 147.988 74.6047 147.974C74.6226 147.959 74.6435 147.949 74.6659 147.944C74.6883 147.939 74.7115 147.938 74.734 147.943H182.1C182.122 147.938 182.146 147.939 182.168 147.944C182.191 147.949 182.211 147.959 182.229 147.974C182.247 147.988 182.262 148.007 182.272 148.027C182.282 148.048 182.287 148.071 182.287 148.094C182.287 148.117 182.282 148.139 182.272 148.16C182.262 148.181 182.247 148.199 182.229 148.214C182.211 148.228 182.191 148.238 182.168 148.244C182.146 148.249 182.122 148.249 182.1 148.244Z" fill="#FAFAFA"/>
<path opacity="0.5" d="M181.505 155.3H74.118C74.079 155.3 74.0416 155.285 74.0141 155.257C73.9865 155.229 73.971 155.192 73.971 155.153C73.971 155.114 73.9865 155.077 74.0141 155.049C74.0416 155.022 74.079 155.006 74.118 155.006H181.505C181.544 155.006 181.581 155.022 181.609 155.049C181.637 155.077 181.652 155.114 181.652 155.153C181.652 155.192 181.637 155.229 181.609 155.257C181.581 155.285 181.544 155.3 181.505 155.3Z" fill="#FAFAFA"/>
<path opacity="0.5" d="M180.896 162.363H73.509C73.47 162.363 73.4326 162.348 73.4051 162.32C73.3775 162.292 73.362 162.255 73.362 162.216C73.362 162.177 73.3775 162.14 73.4051 162.112C73.4326 162.085 73.47 162.069 73.509 162.069H180.896C180.935 162.069 180.972 162.085 181 162.112C181.028 162.14 181.043 162.177 181.043 162.216C181.043 162.255 181.028 162.292 181 162.32C180.972 162.348 180.935 162.363 180.896 162.363Z" fill="#FAFAFA"/>
<path opacity="0.5" d="M180.287 169.447H72.9C72.861 169.447 72.8236 169.432 72.796 169.404C72.7685 169.376 72.753 169.339 72.753 169.3C72.753 169.261 72.7685 169.224 72.796 169.196C72.8236 169.169 72.861 169.153 72.9 169.153H180.287C180.326 169.153 180.363 169.169 180.391 169.196C180.419 169.224 180.434 169.261 180.434 169.3C180.434 169.339 180.419 169.376 180.391 169.404C180.363 169.432 180.326 169.447 180.287 169.447Z" fill="#FAFAFA"/>
<path opacity="0.5" d="M179.678 176.489H72.291C72.252 176.489 72.2146 176.474 72.187 176.446C72.1595 176.419 72.144 176.381 72.144 176.342C72.144 176.303 72.1595 176.266 72.187 176.238C72.2146 176.211 72.252 176.195 72.291 176.195H179.678C179.717 176.195 179.754 176.211 179.782 176.238C179.81 176.266 179.825 176.303 179.825 176.342C179.825 176.381 179.81 176.419 179.782 176.446C179.754 176.474 179.717 176.489 179.678 176.489Z" fill="#FAFAFA"/>
<path opacity="0.5" d="M179.062 183.552H71.682C71.643 183.552 71.6056 183.537 71.578 183.509C71.5505 183.482 71.535 183.444 71.535 183.405C71.535 183.366 71.5505 183.329 71.578 183.301C71.6056 183.274 71.643 183.258 71.682 183.258H179.062C179.101 183.258 179.138 183.274 179.166 183.301C179.193 183.329 179.209 183.366 179.209 183.405C179.209 183.444 179.193 183.482 179.166 183.509C179.138 183.537 179.101 183.552 179.062 183.552Z" fill="#FAFAFA"/>
<path opacity="0.5" d="M178.453 190.615H71.066C71.027 190.615 70.9896 190.6 70.9621 190.572C70.9345 190.545 70.919 190.507 70.919 190.468C70.919 190.429 70.9345 190.392 70.9621 190.364C70.9896 190.337 71.027 190.321 71.066 190.321H178.453C178.492 190.321 178.529 190.337 178.557 190.364C178.585 190.392 178.6 190.429 178.6 190.468C178.6 190.507 178.585 190.545 178.557 190.572C178.529 190.6 178.492 190.615 178.453 190.615Z" fill="#FAFAFA"/>
</g>
<path d="M166.98 196.992C166.96 196.989 166.942 196.978 166.93 196.963C166.917 196.948 166.91 196.928 166.91 196.908L180.665 37.8051C180.665 37.7631 180.7 37.7421 180.742 37.7351C180.762 37.7384 180.78 37.7488 180.793 37.7642C180.805 37.7796 180.812 37.7991 180.812 37.8191L167.05 196.922C167.05 196.941 167.043 196.958 167.03 196.972C167.016 196.985 166.999 196.992 166.98 196.992Z" fill="#FFB347"/>
<path opacity="0.3" d="M166.98 196.992C166.96 196.989 166.942 196.978 166.93 196.963C166.917 196.948 166.91 196.928 166.91 196.908L180.665 37.8051C180.665 37.7631 180.7 37.7421 180.742 37.7351C180.762 37.7384 180.78 37.7488 180.793 37.7642C180.805 37.7796 180.812 37.7991 180.812 37.8191L167.05 196.922C167.05 196.941 167.043 196.958 167.03 196.972C167.016 196.985 166.999 196.992 166.98 196.992Z" fill="black"/>
<path d="M178.054 15.0411H170.06C170.697 20.4599 170.781 25.9293 170.312 31.3651L169.108 45.3301H177.102L178.306 31.3651C178.775 25.9293 178.691 20.4599 178.054 15.0411Z" fill="#FFB347"/>
<path opacity="0.3" d="M178.054 15.0411H170.06C170.697 20.4599 170.781 25.9293 170.312 31.3651L169.108 45.3301H177.102L178.306 31.3651C178.775 25.9293 178.691 20.4599 178.054 15.0411Z" fill="black"/>
<path d="M108.159 48.1161H108.103C108.069 48.1069 108.039 48.0869 108.018 48.0591C107.996 48.0313 107.984 47.9972 107.984 47.9621C107.968 47.7733 107.914 47.5897 107.825 47.4225C107.736 47.2552 107.614 47.1078 107.466 46.9891C107.181 46.7714 106.855 46.6124 106.508 46.5211C106.16 46.4298 105.799 46.408 105.443 46.4571C104.88 46.5545 104.326 46.7045 103.791 46.9051C103.199 47.1315 102.584 47.2912 101.957 47.3811C100.819 47.4913 99.6834 47.1577 98.786 46.4501C98.4603 46.949 97.996 47.342 97.4501 47.5808C96.9042 47.8196 96.3004 47.8937 95.713 47.7941C95.304 47.7101 94.9169 47.5424 94.576 47.3014C94.235 47.0605 93.9477 46.7516 93.732 46.3941C93.5864 46.1694 93.3619 46.0074 93.1027 45.94C92.8436 45.8726 92.5686 45.9048 92.332 46.0301C91.4204 46.4905 90.4858 46.9041 89.532 47.2691C89.5088 47.2793 89.4838 47.2846 89.4585 47.2846C89.4332 47.2846 89.4081 47.2793 89.385 47.2691C89.3624 47.2557 89.3432 47.2374 89.3287 47.2156C89.3141 47.1938 89.3047 47.169 89.301 47.1431C89.2717 46.9107 89.2717 46.6755 89.301 46.4431C89.3136 46.3504 89.3022 46.256 89.2679 46.169C89.2336 46.0819 89.1775 46.0052 89.105 45.9461C89.0425 45.8945 88.9676 45.8602 88.8878 45.8467C88.8079 45.8332 88.7259 45.8409 88.65 45.8691C88.267 45.9929 87.9074 46.1798 87.586 46.4221L87.432 46.5411C86.732 47.0871 86.13 47.4931 85.724 47.4371C85.607 47.4192 85.5015 47.3564 85.43 47.2621C85.2833 47.0314 85.226 46.7551 85.269 46.4851C85.342 45.8977 85.5952 45.3474 85.9939 44.9099C86.3925 44.4724 86.9169 44.1693 87.495 44.0421C87.5395 44.0337 87.5854 44.0429 87.6233 44.0677C87.6611 44.0925 87.6879 44.131 87.698 44.1751C87.7031 44.1981 87.7034 44.2219 87.6991 44.2451C87.6948 44.2682 87.6858 44.2903 87.6727 44.3099C87.6596 44.3295 87.6427 44.3463 87.623 44.3592C87.6033 44.3721 87.5812 44.3809 87.558 44.3851C87.0533 44.496 86.5956 44.7611 86.2482 45.1436C85.9009 45.5261 85.681 46.0071 85.619 46.5201C85.5866 46.7026 85.6188 46.8907 85.71 47.0521C85.7168 47.0626 85.7262 47.0713 85.7371 47.0774C85.7481 47.0835 85.7604 47.0868 85.773 47.0871C86.067 47.1291 86.788 46.5901 87.222 46.2611L87.376 46.1421C87.7286 45.8789 88.1209 45.6733 88.538 45.5331C88.6697 45.4871 88.811 45.4758 88.9483 45.5004C89.0857 45.5249 89.2143 45.5844 89.322 45.6731C89.4417 45.7674 89.5349 45.8911 89.5926 46.0322C89.6503 46.1733 89.6704 46.3269 89.651 46.4781C89.6405 46.6039 89.6405 46.7303 89.651 46.8561C90.5121 46.5188 91.3555 46.138 92.178 45.7151C92.4945 45.5422 92.8654 45.4981 93.2136 45.592C93.5618 45.6859 93.8603 45.9105 94.047 46.2191C94.2771 46.6256 94.6129 46.9623 95.0188 47.1936C95.4247 47.4248 95.8856 47.542 96.3526 47.5327C96.8197 47.5234 97.2755 47.3879 97.6719 47.1406C98.0682 46.8933 98.3903 46.5435 98.604 46.1281C98.615 46.1044 98.6315 46.0837 98.6523 46.0679C98.673 46.052 98.6973 46.0415 98.723 46.0371C98.7491 46.033 98.7757 46.0346 98.8011 46.0419C98.8265 46.0492 98.85 46.0618 98.87 46.0791C99.2868 46.4435 99.774 46.7185 100.301 46.8871C100.829 47.0557 101.385 47.1142 101.936 47.0591C102.536 46.9703 103.125 46.8178 103.693 46.6041C104.249 46.3948 104.823 46.2378 105.408 46.1351C106.224 46.0284 107.048 46.2472 107.704 46.7441C107.976 46.9596 108.176 47.2525 108.278 47.5841C109.391 46.3241 110.721 45.0711 112.387 45.1411C112.494 45.1355 112.601 45.1525 112.701 45.1911C112.801 45.2297 112.892 45.289 112.968 45.3651C113.03 45.4588 113.072 45.5644 113.092 45.6753C113.111 45.7862 113.107 45.8998 113.08 46.0091L112.884 47.4861C113.742 47.0046 114.497 46.3574 115.103 45.5821C115.378 45.2095 115.712 44.8834 116.09 44.6161C116.265 44.4692 116.484 44.3853 116.713 44.3777C116.941 44.37 117.166 44.4392 117.35 44.5741C117.59 44.7956 117.754 45.087 117.819 45.4071C117.819 45.4981 117.875 45.5891 117.91 45.6731C117.984 45.8737 118.132 46.0388 118.323 46.1351C118.358 46.1524 118.396 46.1613 118.435 46.1613C118.474 46.1613 118.512 46.1524 118.547 46.1351C118.589 46.1159 118.636 46.114 118.68 46.1297C118.723 46.1454 118.758 46.1775 118.778 46.2191C118.797 46.2619 118.8 46.3106 118.784 46.355C118.768 46.3994 118.736 46.436 118.694 46.4571C118.615 46.4918 118.529 46.5097 118.442 46.5097C118.355 46.5097 118.269 46.4918 118.19 46.4571C117.912 46.3241 117.696 46.0882 117.588 45.7991C117.546 45.7081 117.518 45.6101 117.483 45.5121C117.441 45.2482 117.319 45.0037 117.133 44.8121C117.009 44.7278 116.861 44.6857 116.711 44.692C116.561 44.6983 116.417 44.7527 116.3 44.8471C115.953 45.0927 115.648 45.3929 115.397 45.7361C114.691 46.642 113.792 47.3787 112.765 47.8921C112.738 47.9074 112.708 47.9155 112.677 47.9155C112.647 47.9155 112.617 47.9074 112.59 47.8921C112.563 47.8741 112.541 47.8488 112.528 47.8191C112.514 47.7894 112.509 47.7565 112.513 47.7241L112.751 45.9111C112.751 45.7711 112.786 45.6171 112.716 45.5401C112.646 45.4631 112.562 45.4491 112.401 45.4421H112.296C110.7 45.4421 109.412 46.7861 108.327 48.0531C108.306 48.0767 108.28 48.0948 108.251 48.1058C108.222 48.1168 108.19 48.1203 108.159 48.1161Z" fill="#263238"/>
<path d="M148.052 48.0951C147.714 48.055 147.391 47.9333 147.111 47.7407C146.83 47.548 146.601 47.2901 146.442 46.9891C146.296 46.7357 146.165 46.4739 146.05 46.2051C145.917 45.8891 145.758 45.5848 145.574 45.2951C144.793 45.9758 143.881 46.4881 142.893 46.8001C142.868 46.8156 142.839 46.8237 142.809 46.8237C142.779 46.8237 142.75 46.8156 142.725 46.8001C142.701 46.7801 142.683 46.7538 142.673 46.7241C142.663 46.6944 142.662 46.6625 142.669 46.6321C142.725 46.3646 142.76 46.0931 142.774 45.8201C142.786 45.5939 142.741 45.3683 142.643 45.164C142.546 44.9598 142.398 44.7834 142.214 44.6511C142.036 44.5195 141.828 44.4356 141.608 44.4074C141.389 44.3793 141.166 44.4077 140.961 44.4901L138.945 45.2671C138.623 45.3861 137.65 45.7641 137.125 45.1691C137.063 45.0919 137.007 45.01 136.957 44.9241C136.903 44.8197 136.824 44.7307 136.726 44.6651C136.565 44.5881 136.348 44.7001 136.152 44.8261C134.871 45.6171 133.555 46.3801 132.246 47.1011C131.79 47.4028 131.265 47.5857 130.72 47.6331C130.463 47.6309 130.209 47.5713 129.978 47.4587C129.747 47.3461 129.543 47.1832 129.383 46.9821C129.131 46.6998 128.976 46.344 128.942 45.9671C128.189 46.6866 127.214 47.1285 126.177 47.2201C125.895 47.2146 125.623 47.1189 125.4 46.9471C125.195 46.774 125.052 46.5399 124.99 46.2791C124.928 46.0183 124.952 45.7445 125.057 45.4981C125.257 45.0591 125.551 44.6696 125.918 44.3571C125.933 44.337 125.952 44.3204 125.974 44.3084C125.996 44.2964 126.021 44.2893 126.046 44.2875C126.071 44.2857 126.096 44.2894 126.119 44.2981C126.143 44.3069 126.164 44.3206 126.182 44.3383C126.2 44.3561 126.213 44.3774 126.222 44.4009C126.231 44.4244 126.234 44.4495 126.233 44.4745C126.231 44.4995 126.224 44.5238 126.212 44.5459C126.2 44.5679 126.183 44.587 126.163 44.6021C125.835 44.8842 125.57 45.2325 125.386 45.6241C125.311 45.798 125.291 45.991 125.33 46.1766C125.369 46.3621 125.464 46.531 125.603 46.6601C125.78 46.7744 125.988 46.8284 126.198 46.8141C127.22 46.8141 128.123 46.1141 129.04 45.4141C129.069 45.3954 129.103 45.3855 129.138 45.3855C129.173 45.3855 129.207 45.3954 129.236 45.4141C129.268 45.4314 129.293 45.4584 129.308 45.4912C129.323 45.524 129.327 45.5608 129.32 45.5961C129.292 45.7992 129.308 46.0061 129.369 46.202C129.429 46.398 129.532 46.5782 129.67 46.7301C129.797 46.8884 129.956 47.0173 130.137 47.108C130.319 47.1986 130.517 47.2488 130.72 47.2551C131.219 47.2109 131.7 47.0451 132.12 46.7721C133.422 46.0721 134.731 45.2881 136.005 44.4971C136.131 44.3934 136.281 44.323 136.441 44.2924C136.601 44.2619 136.767 44.2721 136.922 44.3221C137.083 44.4119 137.212 44.5487 137.293 44.7141C137.332 44.7809 137.376 44.8442 137.426 44.9031C137.678 45.1901 138.126 45.1901 138.861 44.9031L140.877 44.1261C141.138 44.0259 141.421 43.9927 141.698 44.0294C141.976 44.066 142.24 44.1715 142.466 44.3361C142.696 44.5031 142.881 44.7251 143.003 44.9819C143.126 45.2387 143.182 45.5221 143.166 45.8061C143.155 45.9961 143.134 46.1854 143.103 46.3731C143.998 46.0488 144.821 45.5518 145.525 44.9101C145.562 44.8777 145.609 44.8603 145.658 44.8611C145.682 44.8632 145.705 44.8706 145.725 44.8827C145.746 44.8948 145.764 44.9113 145.777 44.9311C146.035 45.2778 146.247 45.6567 146.407 46.0581C146.526 46.3171 146.645 46.5761 146.785 46.8141C146.919 47.1004 147.137 47.3397 147.409 47.5007C147.681 47.6618 147.995 47.7372 148.311 47.7171C148.773 47.6121 149.074 47.1921 149.396 46.7371C149.672 46.2143 150.134 45.8145 150.691 45.6171C151.268 45.5605 151.845 45.7229 152.308 46.0721C152.49 46.1701 152.672 46.2751 152.854 46.3591C153.918 46.8281 155.08 46.5481 156.305 46.2471C157.246 45.9556 158.234 45.8417 159.217 45.9111C159.24 45.9127 159.263 45.9192 159.284 45.9302C159.305 45.9412 159.323 45.9564 159.338 45.9749C159.352 45.9934 159.363 46.0147 159.368 46.0374C159.374 46.0602 159.375 46.0839 159.371 46.1071C159.364 46.1524 159.34 46.1931 159.303 46.2206C159.266 46.2481 159.22 46.2601 159.175 46.2541C158.229 46.1951 157.28 46.309 156.375 46.5901C155.143 46.8911 153.876 47.1991 152.7 46.6741C152.503 46.5849 152.311 46.4844 152.126 46.3731C151.726 46.0678 151.228 45.9208 150.726 45.9601C150.257 46.0651 149.956 46.4921 149.634 46.9401C149.361 47.4624 148.901 47.8624 148.346 48.0601C148.25 48.0821 148.151 48.0938 148.052 48.0951Z" fill="#263238"/>
<path d="M89.595 55.0182C89.5629 55.0268 89.5291 55.0268 89.497 55.0182C89.4724 54.9993 89.4525 54.9749 89.4391 54.9469C89.4257 54.9189 89.4192 54.8882 89.42 54.8572C89.4558 54.4912 89.5382 54.1313 89.665 53.7862C89.1336 54.1754 88.5255 54.4471 87.881 54.5835C87.2366 54.7199 86.5705 54.7177 85.927 54.5772C85.6708 54.5417 85.429 54.4377 85.227 54.2762C85.0253 54.0483 84.9139 53.7545 84.9139 53.4502C84.9139 53.1458 85.0253 52.852 85.227 52.6242C85.6055 52.2123 86.0898 51.912 86.627 51.7562C86.6706 51.7395 86.7191 51.7408 86.7618 51.7598C86.8044 51.7788 86.8378 51.814 86.8545 51.8577C86.8712 51.9013 86.8699 51.9498 86.8509 51.9924C86.8318 52.0351 86.7966 52.0685 86.753 52.0852C86.2807 52.2239 85.8534 52.4846 85.514 52.8412C85.3749 53.0055 85.2985 53.2138 85.2985 53.4292C85.2985 53.6445 85.3749 53.8528 85.514 54.0172C85.6697 54.1294 85.8495 54.2037 86.039 54.2342C86.7815 54.3896 87.5517 54.3487 88.2735 54.1154C88.9954 53.8822 89.6439 53.4647 90.155 52.9042C90.1874 52.8741 90.2299 52.8575 90.274 52.8575C90.3181 52.8575 90.3607 52.8741 90.393 52.9042C90.4293 52.9308 90.4539 52.9704 90.4617 53.0148C90.4695 53.0591 90.46 53.1047 90.435 53.1422C90.143 53.5745 89.945 54.0634 89.854 54.5772L94.418 52.1692C94.455 52.149 94.498 52.1429 94.5391 52.1519C94.5803 52.1609 94.6168 52.1844 94.642 52.2182C94.667 52.2502 94.6806 52.2896 94.6806 52.3302C94.6806 52.3708 94.667 52.4102 94.642 52.4422C94.6125 52.4762 94.593 52.5178 94.5856 52.5623C94.5781 52.6067 94.5831 52.6524 94.6 52.6942C94.6273 52.7725 94.6736 52.8429 94.7346 52.899C94.7957 52.9552 94.8697 52.9954 94.95 53.0162C95.2975 53.0208 95.6344 52.8961 95.895 52.6662L95.944 52.6242C96.25 52.3571 96.6269 52.1844 97.029 52.1272C97.2842 52.1283 97.5365 52.1806 97.771 52.2812C100.064 53.0557 102.496 53.3302 104.904 53.0862C105.275 53.0442 105.653 52.9952 106.024 52.9392C107.458 52.6258 108.945 52.657 110.364 53.0302C110.386 53.0371 110.407 53.0486 110.424 53.064C110.442 53.0793 110.456 53.098 110.466 53.1191C110.476 53.1402 110.481 53.163 110.482 53.1863C110.482 53.2095 110.478 53.2326 110.469 53.2542C110.463 53.2761 110.452 53.2965 110.437 53.314C110.423 53.3314 110.405 53.3456 110.384 53.3555C110.364 53.3654 110.341 53.3709 110.318 53.3715C110.296 53.3722 110.273 53.3679 110.252 53.3592C108.876 53.0102 107.438 52.9862 106.052 53.2892C105.674 53.3382 105.296 53.3942 104.918 53.4292C102.456 53.661 99.9732 53.3602 97.638 52.5472C97.3866 52.4168 97.0986 52.3748 96.8205 52.4282C96.5424 52.4815 96.2903 52.627 96.105 52.8412L96.049 52.8762C95.8852 53.0227 95.6935 53.1348 95.4855 53.2058C95.2774 53.2767 95.0572 53.3051 94.838 53.2892C94.6955 53.2574 94.5638 53.189 94.4558 53.0908C94.3477 52.9926 94.2672 52.868 94.222 52.7292C94.2039 52.6868 94.1921 52.642 94.187 52.5962L89.7 54.9972C89.6678 55.0141 89.6313 55.0214 89.595 55.0182Z" fill="#263238"/>
<path d="M117.861 54.5841C117.827 54.5948 117.79 54.5948 117.756 54.5841C117.735 54.5674 117.717 54.5462 117.705 54.522C117.693 54.4978 117.687 54.4711 117.686 54.4441V53.4011C117.686 53.3547 117.704 53.3101 117.737 53.2773C117.77 53.2445 117.815 53.2261 117.861 53.2261C117.906 53.226 117.95 53.2435 117.982 53.2748C118.015 53.3061 118.034 53.3489 118.036 53.3941V54.2061C119.465 53.7699 120.758 52.9718 121.788 51.8891C121.802 51.8711 121.82 51.8567 121.841 51.847C121.862 51.8373 121.884 51.8325 121.907 51.8331C121.953 51.8376 121.996 51.8546 122.033 51.8821C122.211 52.0913 122.318 52.3507 122.341 52.6241C122.39 52.8761 122.432 53.0931 122.593 53.1841C122.732 53.2285 122.881 53.2285 123.02 53.1841C124.017 53.0574 124.989 52.7813 125.904 52.3651C126.723 51.9941 127.836 51.4901 128.613 52.1341L128.753 52.2671C128.82 52.3422 128.901 52.404 128.991 52.4491C129.099 52.4875 129.213 52.5065 129.327 52.5051C129.399 52.4981 129.472 52.4981 129.544 52.5051C129.79 52.5515 130.027 52.6391 130.244 52.7641C130.359 52.826 130.478 52.8798 130.601 52.9251C130.888 53.0371 131.259 53.0021 131.371 52.7781C131.38 52.7568 131.393 52.7377 131.41 52.7218C131.427 52.706 131.447 52.6937 131.468 52.6858C131.49 52.6779 131.513 52.6746 131.536 52.676C131.559 52.6774 131.581 52.6836 131.602 52.6941C131.623 52.7038 131.643 52.7178 131.659 52.7352C131.675 52.7525 131.687 52.773 131.695 52.7952C131.703 52.8174 131.706 52.841 131.704 52.8645C131.703 52.888 131.697 52.911 131.686 52.9321C131.558 53.1215 131.365 53.2583 131.144 53.3175C130.923 53.3766 130.688 53.3541 130.482 53.2541C130.346 53.2029 130.213 53.1445 130.083 53.0791C129.899 52.9691 129.698 52.891 129.488 52.8481H129.299C129.139 52.8496 128.98 52.8211 128.83 52.7641C128.703 52.6991 128.589 52.6113 128.494 52.5051L128.375 52.3931C127.766 51.8961 126.807 52.3301 126.037 52.6801C125.09 53.1084 124.085 53.3938 123.055 53.5271C122.838 53.5699 122.614 53.5454 122.411 53.4571C122.282 53.3651 122.177 53.2445 122.103 53.1048C122.029 52.9651 121.988 52.8101 121.984 52.6521C121.962 52.5136 121.927 52.3777 121.879 52.2461C120.776 53.3514 119.406 54.1541 117.903 54.5771L117.861 54.5841Z" fill="#263238"/>
<path d="M140.709 54.0801C140.649 54.0868 140.587 54.0868 140.527 54.0801C140.417 54.0545 140.314 54.0047 140.226 53.9345C140.138 53.8643 140.066 53.7754 140.016 53.6741C139.976 53.5986 139.955 53.5145 139.955 53.4291C139.955 53.3437 139.976 53.2596 140.016 53.1841C140.026 53.1626 140.04 53.1433 140.057 53.1275C140.075 53.1117 140.095 53.0998 140.118 53.0925C140.14 53.0852 140.164 53.0828 140.187 53.0853C140.211 53.0878 140.234 53.0953 140.254 53.1071C140.274 53.1174 140.292 53.1316 140.306 53.1489C140.321 53.1662 140.331 53.1863 140.338 53.2078C140.344 53.2293 140.347 53.252 140.344 53.2744C140.342 53.2968 140.335 53.3185 140.324 53.3381C140.31 53.3676 140.302 53.3999 140.302 53.4326C140.302 53.4654 140.31 53.4977 140.324 53.5271C140.351 53.5787 140.389 53.624 140.435 53.6601C140.481 53.6963 140.534 53.7225 140.59 53.7371C140.838 53.7464 141.083 53.6779 141.29 53.5411C142.158 53.0764 142.935 52.46 143.586 51.7211C143.612 51.6943 143.645 51.6759 143.681 51.6684C143.717 51.6609 143.755 51.6646 143.789 51.6791C143.924 51.7683 144.035 51.8901 144.111 52.0332C144.186 52.1763 144.225 52.3362 144.223 52.4981C144.241 52.6592 144.281 52.817 144.342 52.9671C144.413 53.099 144.534 53.1972 144.678 53.2401C145.166 53.2985 145.659 53.1899 146.078 52.9321L148.598 51.5671C148.819 51.42 149.083 51.3533 149.347 51.3781C149.557 51.447 149.742 51.576 149.879 51.7491L149.991 51.8611C150.81 52.6451 152.154 52.1971 153.337 51.8051L153.561 51.7351C155.764 51.0281 158.134 51.0281 160.337 51.7351C160.36 51.7407 160.381 51.7509 160.399 51.7651C160.418 51.7792 160.433 51.7971 160.444 51.8175C160.455 51.8379 160.462 51.8604 160.464 51.8836C160.466 51.9067 160.463 51.9301 160.456 51.9521C160.44 51.9959 160.408 52.0319 160.366 52.0528C160.325 52.0736 160.277 52.0777 160.232 52.0641C158.099 51.3815 155.806 51.3815 153.673 52.0641L153.449 52.1411C152.231 52.5401 150.726 53.0441 149.746 52.1411L149.627 52.0151C149.533 51.8969 149.41 51.8053 149.27 51.7491C149.09 51.746 148.914 51.7999 148.766 51.9031L146.246 53.2681C145.739 53.5696 145.143 53.6882 144.559 53.6041C144.442 53.5703 144.334 53.5132 144.24 53.4362C144.146 53.3592 144.069 53.2639 144.013 53.1561C143.931 52.9744 143.879 52.7805 143.859 52.5821C143.846 52.4155 143.798 52.2534 143.719 52.1061C143.062 52.8223 142.288 53.4212 141.43 53.8771C141.209 54.0005 140.962 54.0701 140.709 54.0801Z" fill="#263238"/>
<path d="M103.469 62.8022C103.444 62.8087 103.417 62.8087 103.392 62.8022C103.359 62.7842 103.331 62.7565 103.314 62.7228C103.296 62.6891 103.289 62.6509 103.294 62.6132C103.444 61.6038 103.444 60.5776 103.294 59.5682C102.853 60.0421 102.316 60.4167 101.719 60.6672C101.344 60.8237 100.929 60.8571 100.534 60.7628C100.139 60.6684 99.7846 60.4511 99.521 60.1422C99.4773 60.0843 99.4376 60.0234 99.402 59.9602C99.206 59.6662 99.059 59.4562 98.884 59.5122C98.8023 59.552 98.7324 59.6123 98.681 59.6872L96.63 62.0462C96.5997 62.0719 96.5612 62.0859 96.5215 62.0859C96.4818 62.0859 96.4433 62.0719 96.413 62.0462C96.3788 62.0261 96.3521 61.9954 96.3369 61.9588C96.3217 61.9222 96.319 61.8816 96.329 61.8432L96.721 60.5342C95.2887 60.568 93.8561 60.4861 92.437 60.2892C92.4049 60.2843 92.3748 60.2706 92.3501 60.2496C92.3254 60.2285 92.307 60.2011 92.297 60.1702L92.087 59.5682C91.4043 60.2204 90.5837 60.7108 89.686 61.0032C89.2069 61.1488 88.6957 61.1508 88.2154 61.009C87.7352 60.8671 87.3071 60.5877 86.984 60.2052C86.7001 60.4509 86.3584 60.6202 85.991 60.6974C85.6237 60.7745 85.2427 60.7569 84.884 60.6462C84.846 60.6324 84.8136 60.6063 84.7921 60.5721C84.7705 60.5379 84.761 60.4975 84.765 60.4572C84.8141 60.1328 84.9755 59.8359 85.2212 59.6184C85.4668 59.4009 85.781 59.2766 86.109 59.2672C86.1325 59.2651 86.1562 59.2681 86.1784 59.2761C86.2006 59.2842 86.2208 59.297 86.2375 59.3137C86.2542 59.3304 86.267 59.3506 86.2751 59.3728C86.2831 59.395 86.2861 59.4187 86.284 59.4422C86.284 59.4886 86.2656 59.5331 86.2327 59.5659C86.1999 59.5988 86.1554 59.6172 86.109 59.6172C85.8925 59.6309 85.685 59.7088 85.5129 59.841C85.3409 59.9732 85.2121 60.1536 85.143 60.3592C85.458 60.4296 85.786 60.4162 86.0943 60.3204C86.4025 60.2246 86.6803 60.0497 86.9 59.8132C86.9181 59.7926 86.9409 59.7767 86.9665 59.7669C86.9922 59.7572 87.0198 59.7538 87.047 59.7572C87.0747 59.7611 87.101 59.7714 87.1241 59.7872C87.1472 59.803 87.1663 59.8238 87.18 59.8482C87.4461 60.2241 87.8247 60.5059 88.2612 60.6531C88.6976 60.8003 89.1695 60.8052 89.609 60.6672C90.5313 60.3434 91.3721 59.8227 92.073 59.1412C92.0977 59.1277 92.1254 59.1207 92.1535 59.1207C92.1816 59.1207 92.2093 59.1277 92.234 59.1412C92.2614 59.1488 92.2866 59.1629 92.3074 59.1825C92.3281 59.202 92.3438 59.2263 92.353 59.2532L92.605 59.9952C94.0504 60.1853 95.5087 60.2602 96.966 60.2192C96.9927 60.2178 97.0193 60.2228 97.0436 60.2338C97.0679 60.2447 97.0893 60.2613 97.106 60.2822C97.1195 60.3069 97.1265 60.3346 97.1265 60.3627C97.1265 60.3908 97.1195 60.4185 97.106 60.4432L96.882 61.2062L98.401 59.4562C98.4962 59.3331 98.6215 59.2366 98.765 59.1762C99.199 59.0362 99.465 59.4632 99.682 59.7712C99.7152 59.8298 99.7527 59.886 99.794 59.9392C100.013 60.1856 100.304 60.3568 100.625 60.4284C100.947 60.5 101.283 60.4685 101.586 60.3382C102.232 60.043 102.807 59.6134 103.273 59.0782C103.297 59.0577 103.325 59.0432 103.355 59.0359C103.386 59.0286 103.418 59.0287 103.448 59.0362C103.479 59.0462 103.506 59.0646 103.527 59.0893C103.548 59.1141 103.562 59.1441 103.567 59.1762C103.741 60.1463 103.778 61.1358 103.679 62.1162L105.205 60.4362C105.544 59.9968 105.997 59.658 106.514 59.4562C107.163 59.3384 107.833 59.4316 108.425 59.7222C108.96 59.9962 109.573 60.0778 110.161 59.9532C110.205 59.9374 110.253 59.9396 110.295 59.9593C110.337 59.979 110.369 60.0146 110.385 60.0582C110.399 60.1019 110.396 60.1493 110.376 60.1908C110.357 60.2323 110.322 60.265 110.28 60.2822C109.615 60.4403 108.916 60.3585 108.306 60.0512C108.08 59.8999 107.826 59.7959 107.559 59.7453C107.292 59.6947 107.018 59.6986 106.752 59.7568C106.487 59.815 106.236 59.9263 106.014 60.0839C105.793 60.2416 105.606 60.4424 105.464 60.6742L103.567 62.7742C103.537 62.7923 103.504 62.802 103.469 62.8022Z" fill="#263238"/>
<path d="M123.384 61.1361H123.195C122.712 61.0171 122.558 60.5411 122.425 60.1211C122.363 59.8669 122.249 59.6284 122.089 59.4211C120.947 60.3246 119.534 60.8177 118.078 60.8211C118.032 60.8194 117.989 60.8004 117.956 60.768C117.924 60.7355 117.905 60.692 117.903 60.6461C117.903 60.5997 117.921 60.5552 117.954 60.5224C117.987 60.4896 118.032 60.4711 118.078 60.4711C119.494 60.469 120.865 59.974 121.956 59.0711C121.986 59.0484 122.023 59.0361 122.061 59.0361C122.099 59.0361 122.136 59.0484 122.166 59.0711C122.462 59.3296 122.664 59.6793 122.74 60.0651C122.88 60.5061 122.985 60.7651 123.258 60.8421C123.422 60.8675 123.591 60.8432 123.741 60.7721C124.392 60.5539 125.005 60.2324 125.554 59.8201C125.707 59.6878 125.886 59.5878 126.079 59.5261C126.414 59.4722 126.757 59.5419 127.045 59.7221L127.213 59.7991C128.214 60.2401 129.313 60.0021 130.468 59.7571C131.487 59.4474 132.565 59.3898 133.611 59.5891C133.656 59.6022 133.694 59.632 133.717 59.6724C133.741 59.7128 133.748 59.7607 133.737 59.8061C133.731 59.8282 133.72 59.8488 133.705 59.8667C133.691 59.8846 133.673 59.8995 133.653 59.9106C133.633 59.9216 133.611 59.9286 133.588 59.9311C133.565 59.9336 133.542 59.9316 133.52 59.9251C132.526 59.7471 131.504 59.8071 130.538 60.1001C129.376 60.3451 128.172 60.6041 127.073 60.1001L126.898 60.0231C126.691 59.8882 126.445 59.8243 126.198 59.8411C126.059 59.8875 125.93 59.9613 125.82 60.0581C125.233 60.4982 124.581 60.8453 123.888 61.0871C123.723 61.1279 123.553 61.1444 123.384 61.1361Z" fill="#263238"/>
<path d="M83.715 76.0461C83.4439 76.0464 83.1753 75.9941 82.924 75.8921C82.6828 75.8026 82.4783 75.6351 82.343 75.4161C81.958 74.7161 82.658 74.0161 83.372 73.5821C83.3923 73.5711 83.4145 73.5641 83.4374 73.5616C83.4603 73.5591 83.4835 73.5612 83.5056 73.5677C83.5277 73.5742 83.5483 73.585 83.5662 73.5995C83.5842 73.614 83.5991 73.6319 83.61 73.6521C83.633 73.6921 83.6393 73.7395 83.6275 73.7841C83.6157 73.8287 83.5868 73.8668 83.547 73.8901C83.078 74.1561 82.371 74.7371 82.651 75.2481C82.7494 75.3936 82.8917 75.504 83.057 75.5631C83.799 75.8781 84.751 75.6191 85.857 74.8071C86.6421 74.2411 87.3732 73.6037 88.041 72.9031C88.0762 72.8676 88.124 72.8475 88.174 72.8471C88.1984 72.8479 88.2222 72.8539 88.244 72.8648C88.2657 72.8757 88.2848 72.8911 88.3 72.9101C88.4867 73.1977 88.5545 73.5466 88.489 73.8831C88.4412 74.124 88.4862 74.3741 88.615 74.5831C88.7225 74.6618 88.8479 74.7126 88.9798 74.7309C89.1118 74.7493 89.2462 74.7346 89.371 74.6881C90.4246 74.4178 91.4254 73.973 92.332 73.3721C92.724 73.1341 93.13 72.8961 93.543 72.6721C93.6633 72.5972 93.8005 72.5538 93.942 72.5461C94.39 72.5461 94.523 72.9801 94.642 73.3231C94.6848 73.5443 94.7863 73.7498 94.936 73.9181C95.132 74.0791 95.391 73.9881 95.79 73.8341C96.0239 73.7231 96.2747 73.6521 96.532 73.6241C96.9239 73.6355 97.3037 73.7622 97.624 73.9881L97.848 74.1141C98.177 74.2821 98.646 74.3941 98.891 74.1141C98.9238 74.0821 98.9677 74.0641 99.0135 74.0641C99.0593 74.0641 99.1033 74.0821 99.136 74.1141C99.1685 74.148 99.1867 74.1932 99.1867 74.2401C99.1867 74.2871 99.1685 74.3322 99.136 74.3661C98.9277 74.5239 98.675 74.6122 98.4137 74.6185C98.1524 74.6248 97.8957 74.5488 97.68 74.4011L97.442 74.2681C97.1805 74.0781 96.869 73.9686 96.546 73.9531C96.3281 73.9821 96.1158 74.0434 95.916 74.1351C95.524 74.2891 95.083 74.4711 94.705 74.1351C94.4978 73.9233 94.3567 73.6558 94.299 73.3651C94.194 73.0011 94.124 72.8471 93.956 72.8401C93.8686 72.8517 93.7848 72.8828 93.711 72.9311C93.312 73.1341 92.913 73.3721 92.521 73.6311C91.5809 74.256 90.542 74.7175 89.448 74.9961C89.2648 75.055 89.0695 75.066 88.8808 75.028C88.6921 74.99 88.5162 74.9044 88.37 74.7791C88.2669 74.6389 88.1944 74.4786 88.157 74.3086C88.1196 74.1386 88.1183 73.9627 88.153 73.7921C88.1817 73.6136 88.1817 73.4317 88.153 73.2531C87.5032 73.9005 86.8008 74.4928 86.053 75.0241C85.3985 75.599 84.5815 75.9562 83.715 76.0461Z" fill="#263238"/>
<path d="M106.892 76.0811C106.626 76.0883 106.361 76.0307 106.122 75.9131C105.901 75.7927 105.72 75.6094 105.603 75.3864C105.486 75.1633 105.438 74.9106 105.464 74.6601C105.472 74.4877 105.533 74.3221 105.64 74.1865C105.747 74.0509 105.893 73.9522 106.059 73.9041C106.081 73.8977 106.103 73.8958 106.126 73.8984C106.148 73.901 106.17 73.908 106.189 73.9191C106.209 73.9302 106.226 73.9451 106.24 73.963C106.253 73.9809 106.263 74.0013 106.269 74.0231C106.275 74.0451 106.277 74.0683 106.275 74.0911C106.272 74.114 106.266 74.1361 106.254 74.1562C106.243 74.1764 106.229 74.1942 106.211 74.2086C106.193 74.2229 106.172 74.2337 106.15 74.2401C106.053 74.271 105.969 74.3316 105.908 74.4133C105.848 74.4949 105.815 74.5936 105.814 74.6951C105.797 74.874 105.832 75.0539 105.914 75.2138C105.995 75.3738 106.121 75.507 106.276 75.5981C106.603 75.6988 106.946 75.7334 107.286 75.6998C107.626 75.6661 107.956 75.5649 108.257 75.4021L111.946 74.0021C112.102 73.9316 112.276 73.912 112.443 73.9461C112.543 73.9846 112.633 74.0457 112.706 74.1246C112.779 74.2035 112.833 74.2981 112.863 74.4011C112.905 74.4997 112.964 74.5899 113.038 74.6671C113.178 74.7791 113.423 74.7301 113.773 74.5271L116.748 72.7491C116.927 72.6154 117.148 72.5485 117.371 72.5601C117.833 72.6301 117.938 73.1061 118.022 73.4911C118.043 73.6025 118.071 73.7124 118.106 73.8201C118.252 74.1282 118.502 74.375 118.812 74.5171C119.121 74.6592 119.471 74.6875 119.8 74.5971C120.442 74.4029 121.038 74.0789 121.55 73.6451L121.711 73.5261C122.034 73.2492 122.435 73.0803 122.859 73.0431C123.157 73.0704 123.446 73.1611 123.706 73.3091H123.762C125.076 73.9371 126.506 74.2874 127.962 74.3381C127.861 74.1194 127.823 73.8773 127.85 73.6381C127.872 73.4035 127.943 73.176 128.057 72.97C128.172 72.764 128.328 72.5839 128.515 72.4411C128.849 72.2356 129.22 72.0994 129.607 72.0404C129.994 71.9815 130.39 72.0011 130.769 72.0981C131.544 72.2471 132.283 72.5442 132.946 72.9731L133.17 73.1271C133.386 73.2922 133.621 73.4308 133.87 73.5401C134.668 73.71 135.499 73.5961 136.222 73.2181L136.831 72.9941C138.826 72.3431 140.989 72.6371 142.893 72.8891L150.39 73.8971C150.413 73.8987 150.436 73.9052 150.457 73.9162C150.478 73.9272 150.496 73.9424 150.511 73.9609C150.525 73.9794 150.536 74.0007 150.541 74.0234C150.547 74.0462 150.548 74.0699 150.544 74.0931C150.537 74.1384 150.513 74.1791 150.476 74.2066C150.439 74.2341 150.393 74.2461 150.348 74.2401L142.851 73.2391C140.975 72.9871 138.854 72.7001 136.943 73.3301L136.341 73.5401C135.84 73.8924 135.238 74.0709 134.626 74.0482C134.014 74.0254 133.426 73.8027 132.953 73.4141L132.729 73.2671C132.106 72.8605 131.409 72.5799 130.678 72.4411C130.345 72.3547 129.999 72.3356 129.659 72.3849C129.318 72.4342 128.992 72.5509 128.697 72.7281C128.55 72.8394 128.427 72.9804 128.338 73.142C128.249 73.3036 128.195 73.4822 128.179 73.6661C128.164 73.792 128.177 73.9196 128.215 74.0403C128.254 74.1611 128.318 74.2721 128.403 74.3661C128.425 74.3917 128.44 74.423 128.445 74.4566C128.451 74.4901 128.447 74.5244 128.434 74.5557C128.42 74.587 128.399 74.614 128.371 74.6337C128.344 74.6534 128.311 74.665 128.277 74.6671C126.656 74.658 125.058 74.2923 123.594 73.5961H123.538C123.324 73.4695 123.085 73.3907 122.838 73.3651C122.495 73.4095 122.173 73.5558 121.914 73.7851L121.753 73.8971C121.205 74.3664 120.563 74.7126 119.87 74.9121C119.459 75.02 119.023 74.9794 118.639 74.7976C118.255 74.6158 117.947 74.3044 117.77 73.9181C117.735 73.8061 117.707 73.6801 117.679 73.5611C117.595 73.1691 117.525 72.9311 117.322 72.9031C117.18 72.9089 117.043 72.9578 116.93 73.0431L113.948 74.8211C113.766 74.9261 113.213 75.2551 112.814 74.9331C112.7 74.8242 112.61 74.6932 112.548 74.5481C112.478 74.3941 112.422 74.2961 112.345 74.2751C112.251 74.2631 112.156 74.2802 112.072 74.3241L108.383 75.7241C107.91 75.9279 107.406 76.0486 106.892 76.0811Z" fill="#263238"/>
<path d="M158.685 74.7861C158.521 74.7917 158.358 74.7504 158.216 74.6671C158.121 74.6072 158.043 74.5233 157.99 74.4238C157.937 74.3243 157.911 74.2127 157.915 74.1001C157.915 74.0166 157.938 73.9348 157.981 73.8633C158.025 73.7918 158.086 73.7333 158.16 73.6941C158.202 73.6741 158.25 73.6709 158.294 73.6852C158.339 73.6995 158.376 73.7303 158.398 73.7711C158.418 73.8131 158.421 73.8612 158.407 73.9054C158.393 73.9497 158.362 73.9868 158.321 74.0091C158.301 74.018 158.285 74.0331 158.275 74.0521C158.265 74.0711 158.262 74.0929 158.265 74.1141C158.264 74.1631 158.276 74.2115 158.298 74.2553C158.319 74.2992 158.352 74.3371 158.391 74.3661C158.617 74.451 158.865 74.451 159.091 74.3661C160.417 74.1105 161.728 73.7834 163.018 73.3861C163.662 73.1901 164.418 73.1831 164.621 73.7711C164.642 73.842 164.656 73.9146 164.663 73.9881C164.669 74.0617 164.691 74.1332 164.726 74.1981C164.789 74.2821 164.964 74.2891 165.111 74.2891C166.997 74.2391 168.865 73.9112 170.655 73.3161C170.7 73.3012 170.748 73.3047 170.79 73.3257C170.832 73.3467 170.864 73.3835 170.879 73.4281C170.894 73.4727 170.89 73.5213 170.869 73.5633C170.848 73.6053 170.812 73.6372 170.767 73.6521C168.943 74.2563 167.039 74.5888 165.118 74.6391C164.991 74.6607 164.86 74.6502 164.738 74.6087C164.616 74.5671 164.506 74.4958 164.418 74.4011C164.343 74.2939 164.299 74.1678 164.292 74.0371C164.287 73.9845 164.275 73.9327 164.257 73.8831C164.103 73.4211 163.193 73.6871 163.095 73.7221C161.793 74.1209 160.47 74.4503 159.133 74.7091C158.986 74.7486 158.836 74.7744 158.685 74.7861Z" fill="#263238"/>
<path d="M77.555 168.047C77.288 168.052 77.0237 167.992 76.785 167.872C76.5637 167.752 76.3831 167.568 76.266 167.345C76.1489 167.122 76.1005 166.87 76.127 166.619C76.1327 166.446 76.1934 166.279 76.3005 166.143C76.4075 166.008 76.5552 165.909 76.722 165.863C76.7449 165.854 76.7693 165.85 76.7938 165.852C76.8183 165.853 76.8423 165.859 76.8641 165.87C76.886 165.881 76.9053 165.897 76.9208 165.916C76.9362 165.935 76.9476 165.957 76.954 165.981C76.9604 166.004 76.9617 166.029 76.958 166.053C76.9542 166.077 76.9454 166.101 76.9321 166.121C76.9188 166.142 76.9013 166.159 76.8808 166.173C76.8603 166.186 76.8372 166.195 76.813 166.199C76.7163 166.23 76.6317 166.291 76.5714 166.372C76.5111 166.454 76.4781 166.553 76.477 166.654C76.4605 166.834 76.4952 167.015 76.5769 167.176C76.6586 167.337 76.7841 167.471 76.939 167.564C77.6001 167.762 78.3126 167.689 78.92 167.361L82.609 165.961C82.7646 165.891 82.9386 165.871 83.106 165.905C83.2062 165.944 83.2962 166.005 83.369 166.084C83.4419 166.163 83.4956 166.257 83.526 166.36C83.5659 166.46 83.6254 166.55 83.701 166.626C83.841 166.738 84.086 166.689 84.401 166.486L87.376 164.708C87.5577 164.58 87.7769 164.516 87.999 164.526C88.461 164.589 88.566 165.065 88.65 165.45C88.6705 165.562 88.6986 165.671 88.734 165.779C88.8831 166.082 89.1333 166.323 89.4413 166.461C89.7493 166.599 90.0958 166.625 90.421 166.535C91.0615 166.342 91.655 166.017 92.164 165.583L92.332 165.464C92.5852 165.198 92.9246 165.03 93.2898 164.99C93.655 164.951 94.0225 165.042 94.327 165.247H94.376C95.691 165.873 97.1204 166.224 98.576 166.276C98.4792 166.056 98.4407 165.815 98.464 165.576C98.4905 165.339 98.5665 165.11 98.6871 164.903C98.8076 164.697 98.9701 164.519 99.164 164.379C99.4982 164.175 99.8696 164.04 100.257 163.981C100.644 163.922 101.038 163.941 101.418 164.036C102.193 164.185 102.932 164.482 103.595 164.911L103.812 165.065C104.245 165.416 104.78 165.614 105.337 165.631C105.893 165.647 106.44 165.48 106.892 165.156L107.501 164.932C109.489 164.288 111.659 164.575 113.563 164.827L121.06 165.835C121.083 165.837 121.106 165.843 121.127 165.854C121.148 165.865 121.166 165.88 121.181 165.899C121.195 165.917 121.206 165.939 121.211 165.961C121.217 165.984 121.218 166.008 121.214 166.031C121.205 166.076 121.181 166.115 121.144 166.143C121.108 166.17 121.063 166.182 121.018 166.178L113.5 165.247C111.624 164.995 109.503 164.715 107.592 165.338L106.99 165.548C106.196 165.972 105.274 166.089 104.4 165.877C104.114 165.759 103.844 165.606 103.595 165.422L103.378 165.275C102.753 164.871 102.057 164.591 101.327 164.449C100.994 164.364 100.648 164.346 100.308 164.395C99.968 164.444 99.6411 164.56 99.346 164.736C99.1993 164.848 99.0775 164.989 98.9884 165.151C98.8992 165.312 98.8446 165.49 98.828 165.674C98.8133 165.8 98.8256 165.928 98.8643 166.048C98.9029 166.169 98.9669 166.28 99.052 166.374C99.0743 166.4 99.0889 166.431 99.0943 166.465C99.0997 166.498 99.0956 166.532 99.0825 166.564C99.0694 166.595 99.0478 166.622 99.0201 166.642C98.9925 166.661 98.9599 166.673 98.926 166.675C97.3054 166.665 95.7068 166.299 94.243 165.604H94.187C93.9717 165.481 93.7336 165.402 93.487 165.373C93.1439 165.417 92.822 165.564 92.563 165.793L92.402 165.912C91.8522 166.377 91.2106 166.72 90.519 166.92C90.108 167.028 89.672 166.987 89.2879 166.806C88.9038 166.624 88.5961 166.312 88.419 165.926C88.384 165.814 88.356 165.695 88.328 165.569C88.244 165.177 88.174 164.939 87.971 164.911C87.8292 164.917 87.6924 164.966 87.579 165.051L84.597 166.829C84.415 166.934 83.897 167.27 83.463 166.941C83.3475 166.833 83.2568 166.702 83.197 166.556C83.127 166.402 83.078 166.304 82.994 166.283C82.9002 166.275 82.806 166.292 82.721 166.332L79.025 167.732C78.5566 167.92 78.0594 168.027 77.555 168.047Z" fill="#263238"/>
<path d="M129.348 166.717C129.184 166.723 129.021 166.681 128.879 166.598C128.784 166.538 128.706 166.454 128.653 166.355C128.6 166.255 128.574 166.144 128.578 166.031C128.578 165.948 128.601 165.866 128.644 165.794C128.688 165.723 128.749 165.664 128.823 165.625C128.865 165.605 128.913 165.602 128.957 165.616C129.002 165.631 129.039 165.661 129.061 165.702C129.081 165.744 129.084 165.792 129.07 165.836C129.056 165.881 129.025 165.918 128.984 165.94C128.964 165.949 128.948 165.964 128.938 165.983C128.928 166.002 128.925 166.024 128.928 166.045C128.927 166.094 128.938 166.143 128.96 166.187C128.982 166.231 129.014 166.269 129.054 166.297C129.28 166.382 129.528 166.382 129.754 166.297C131.08 166.044 132.391 165.717 133.681 165.317C134.325 165.121 135.081 165.114 135.284 165.702C135.305 165.773 135.319 165.846 135.326 165.919C135.332 165.993 135.354 166.064 135.389 166.129C135.452 166.213 135.627 166.22 135.774 166.22C137.65 166.167 139.509 165.84 141.29 165.247C141.335 165.232 141.383 165.236 141.425 165.257C141.467 165.278 141.499 165.315 141.514 165.359C141.529 165.404 141.525 165.452 141.504 165.494C141.483 165.536 141.447 165.568 141.402 165.583C139.578 166.187 137.674 166.52 135.753 166.57C135.626 166.593 135.496 166.584 135.374 166.544C135.251 166.503 135.141 166.433 135.053 166.339C134.977 166.23 134.933 166.101 134.927 165.968C134.934 165.917 134.934 165.865 134.927 165.814C134.773 165.352 133.863 165.618 133.758 165.653C132.458 166.052 131.138 166.381 129.803 166.64C129.654 166.681 129.502 166.707 129.348 166.717Z" fill="#263238"/>
<path d="M115.929 82.9061C115.206 82.9286 114.497 82.7093 113.913 82.2831C113.659 82.0841 113.453 81.8305 113.311 81.5411C113.124 81.685 112.913 81.7941 112.688 81.8631C112.151 81.98 111.596 81.9812 111.059 81.8665C110.522 81.7518 110.015 81.524 109.573 81.1981C109.464 81.1102 109.334 81.0545 109.195 81.0371C109.033 81.0721 108.887 81.1609 108.782 81.2891L108.292 81.7511C108.104 81.9296 107.876 82.0591 107.626 82.1281C107.377 82.1971 107.114 82.2035 106.861 82.1467C106.608 82.09 106.374 81.9718 106.178 81.8027C105.982 81.6335 105.83 81.4187 105.737 81.1771L105.513 80.6101C103.345 81.3976 101.006 81.5933 98.737 81.1771C97.9108 81.6418 97.003 81.9436 96.063 82.0661C96.0364 82.0688 96.0096 82.0658 95.9842 82.0574C95.9589 82.0489 95.9356 82.0352 95.916 82.0171C95.8979 81.9986 95.8836 81.9767 95.874 81.9527C95.8644 81.9287 95.8596 81.903 95.86 81.8771C95.9008 81.4092 95.8112 80.9391 95.601 80.5191C94.6899 80.9275 93.6725 81.0353 92.696 80.8271L92.5 80.7851C92.2909 80.7228 92.0741 80.6898 91.856 80.6871C91.5223 80.7282 91.2019 80.843 90.918 81.0231L90.582 81.2121C89.9399 81.6239 89.2283 81.9156 88.482 82.0731C88.0557 82.1608 87.6131 82.1228 87.208 81.9637C86.8029 81.8047 86.4527 81.5314 86.2 81.1771C85.7685 81.5314 85.2165 81.7046 84.66 81.6601C84.4618 81.6169 84.2795 81.5194 84.1336 81.3785C83.9877 81.2375 83.8839 81.0587 83.834 80.8621C83.7887 80.7256 83.7866 80.5784 83.8279 80.4406C83.8693 80.3029 83.952 80.1812 84.065 80.0921C84.0985 80.0616 84.1422 80.0447 84.1875 80.0447C84.2328 80.0447 84.2765 80.0616 84.31 80.0921C84.3366 80.1309 84.3477 80.1783 84.3412 80.2249C84.3348 80.2715 84.3111 80.314 84.275 80.3441C84.2201 80.3944 84.181 80.4595 84.1623 80.5316C84.1437 80.6036 84.1464 80.6795 84.17 80.7501C84.2039 80.8808 84.2726 80.9999 84.3687 81.0948C84.4648 81.1897 84.5848 81.2568 84.716 81.2891C85.2492 81.2961 85.7659 81.1039 86.165 80.7501C86.1881 80.7399 86.2132 80.7346 86.2385 80.7346C86.2638 80.7346 86.2888 80.7399 86.312 80.7501C86.3616 80.7691 86.4018 80.8068 86.424 80.8551C86.6221 81.1941 86.9227 81.4614 87.2825 81.6186C87.6423 81.7759 88.0426 81.8149 88.426 81.7301C89.1223 81.5705 89.7855 81.291 90.386 80.9041L90.722 80.7151C91.0512 80.505 91.4253 80.3755 91.814 80.3371C92.0649 80.3387 92.3145 80.374 92.556 80.4421L92.738 80.4841C93.6962 80.6874 94.695 80.5616 95.573 80.1271C95.6136 80.11 95.6589 80.1076 95.7011 80.1204C95.7433 80.1332 95.7797 80.1603 95.804 80.1971C96.0613 80.6519 96.1963 81.1656 96.196 81.6881C97.0389 81.5541 97.8503 81.267 98.59 80.8411C98.6284 80.8272 98.6705 80.8272 98.709 80.8411C100.991 81.2746 103.349 81.0662 105.52 80.2391C105.565 80.2231 105.614 80.2251 105.657 80.2447C105.7 80.2643 105.734 80.3 105.751 80.3441L106.038 81.0441C106.111 81.231 106.228 81.3972 106.38 81.528C106.532 81.6589 106.714 81.7505 106.909 81.7947C107.105 81.8389 107.308 81.8345 107.502 81.7817C107.695 81.729 107.873 81.6295 108.019 81.4921L108.516 81.0231C108.681 80.8329 108.91 80.7107 109.16 80.6801C109.365 80.6942 109.562 80.7671 109.727 80.8901C110.125 81.1828 110.579 81.3905 111.061 81.5C111.542 81.6096 112.042 81.6188 112.527 81.5271C112.742 81.4551 112.941 81.3435 113.115 81.1981C113.039 80.9724 112.999 80.7362 112.996 80.4981C112.981 80.2327 113.029 79.9676 113.136 79.7243C113.243 79.481 113.406 79.2664 113.612 79.0981C113.653 79.0691 113.703 79.0565 113.752 79.0631C113.775 79.067 113.797 79.0759 113.817 79.0892C113.836 79.1025 113.852 79.1199 113.864 79.1401C113.994 79.3471 114.072 79.5818 114.094 79.825C114.116 80.0683 114.08 80.3133 113.99 80.5401C113.884 80.8161 113.725 81.0684 113.521 81.2821C113.649 81.5547 113.838 81.7942 114.074 81.9821C114.526 82.2652 115.035 82.4457 115.565 82.511C116.095 82.5764 116.632 82.5248 117.14 82.3601C117.673 82.2144 118.196 82.0367 118.708 81.8281C120.039 81.2698 121.464 80.9682 122.908 80.9391C123.601 80.9017 124.29 80.8222 124.973 80.7011L125.778 80.5191C126.947 80.2391 128.151 79.9591 129.215 80.5191C129.236 80.5295 129.254 80.5439 129.27 80.5616C129.285 80.5792 129.296 80.5997 129.304 80.6219C129.311 80.6441 129.313 80.6675 129.311 80.6907C129.309 80.7139 129.303 80.7365 129.292 80.7571C129.281 80.7774 129.266 80.7953 129.248 80.8098C129.23 80.8242 129.21 80.8351 129.188 80.8416C129.165 80.8481 129.142 80.8501 129.119 80.8477C129.096 80.8452 129.074 80.8382 129.054 80.8271C128.109 80.3301 126.954 80.5961 125.862 80.8621L125.043 81.0441C124.348 81.1632 123.647 81.245 122.943 81.2891C122.104 81.3312 121.271 81.4436 120.451 81.6251C119.919 81.774 119.396 81.9516 118.883 82.1571C118.357 82.3694 117.82 82.5517 117.273 82.7031C116.835 82.8235 116.383 82.8916 115.929 82.9061ZM113.731 79.5321C113.507 79.7976 113.39 80.1369 113.402 80.4841C113.401 80.6256 113.417 80.7666 113.451 80.9041C113.562 80.7592 113.652 80.5989 113.717 80.4281C113.826 80.1403 113.831 79.8232 113.731 79.5321Z" fill="#263238"/>
<path d="M141.78 82.2971C141.574 82.2971 141.368 82.283 141.164 82.2551C141.117 82.2476 141.074 82.2226 141.045 82.1851C141.035 82.1644 141.03 82.1416 141.03 82.1186C141.03 82.0956 141.035 82.0729 141.045 82.0521C141.1 81.737 141.081 81.4135 140.989 81.1071C139.137 81.881 137.095 82.0762 135.13 81.6671C135.102 81.6625 135.075 81.6503 135.053 81.6319C135.03 81.6134 135.014 81.5893 135.004 81.5621C134.991 81.5374 134.983 81.5098 134.983 81.4816C134.983 81.4535 134.991 81.4258 135.004 81.4011L135.536 80.6241C135.548 80.6049 135.564 80.5883 135.583 80.5753C135.601 80.5623 135.622 80.5533 135.645 80.5487C135.667 80.5441 135.69 80.5441 135.712 80.5487C135.734 80.5532 135.755 80.5622 135.774 80.5751C135.793 80.5878 135.81 80.6043 135.823 80.6236C135.836 80.6428 135.845 80.6645 135.85 80.6873C135.854 80.7101 135.854 80.7336 135.85 80.7564C135.845 80.7792 135.836 80.8009 135.823 80.8201L135.438 81.3801C137.316 81.7165 139.251 81.485 140.996 80.7151C141.018 80.7046 141.042 80.6991 141.066 80.6991C141.09 80.6991 141.114 80.7046 141.136 80.7151C141.179 80.7313 141.215 80.764 141.234 80.8061C141.375 81.1639 141.428 81.5505 141.388 81.9331C142.942 82.0801 144.426 81.2821 145.854 80.5331C146.267 80.3091 146.687 80.0781 147.107 79.8751C147.331 79.7376 147.598 79.6877 147.856 79.7351C148.119 79.8432 148.33 80.049 148.444 80.3091C148.475 80.3698 148.51 80.4283 148.549 80.4841C149.102 81.3171 150.376 81.2961 151.349 81.1351C151.655 81.0692 151.97 81.055 152.28 81.0931C152.506 81.15 152.723 81.2396 152.924 81.3591L153.134 81.4641C154.296 82.0241 155.808 81.8351 157.761 80.8901C158.692 80.4351 159.763 80.0011 160.596 80.5751C160.618 80.5865 160.637 80.6025 160.653 80.6219C160.668 80.6413 160.679 80.6638 160.685 80.6878C160.691 80.7117 160.692 80.7367 160.687 80.7611C160.683 80.7854 160.674 80.8086 160.66 80.829C160.646 80.8494 160.628 80.8666 160.606 80.8796C160.585 80.8925 160.562 80.9008 160.537 80.9039C160.513 80.907 160.488 80.9049 160.464 80.8977C160.441 80.8905 160.419 80.8784 160.4 80.8621C159.7 80.3931 158.755 80.7921 157.908 81.2051C155.857 82.1991 154.247 82.3881 153.008 81.7791L152.791 81.6671C152.619 81.5679 152.436 81.4903 152.245 81.4361C151.988 81.4025 151.727 81.4167 151.475 81.4781C149.9 81.7371 148.815 81.4781 148.29 80.6801L148.171 80.4911C148.059 80.3021 147.954 80.1201 147.793 80.0711C147.619 80.0519 147.443 80.094 147.296 80.1901C146.883 80.3931 146.463 80.6171 146.057 80.8411C144.664 81.5411 143.278 82.2971 141.78 82.2971Z" fill="#263238"/>
<path d="M83.078 96.4512H82.91C82.6912 96.3878 82.4987 96.2554 82.3612 96.0738C82.2237 95.8922 82.1486 95.671 82.147 95.4431C82.1604 95.0383 82.2632 94.6415 82.448 94.2811C82.4572 94.26 82.4704 94.2408 82.487 94.2247C82.5035 94.2087 82.5231 94.196 82.5446 94.1876C82.5661 94.1791 82.589 94.175 82.6121 94.1754C82.6351 94.1759 82.6579 94.1809 82.679 94.1902C82.7206 94.21 82.7531 94.2449 82.77 94.2877C82.7869 94.3306 82.7869 94.3783 82.77 94.4212C82.6072 94.7335 82.5141 95.0774 82.497 95.4291C82.4895 95.5827 82.5327 95.7344 82.62 95.8609C82.7073 95.9874 82.8338 96.0817 82.98 96.1291C83.1661 96.1478 83.3536 96.1113 83.519 96.0242C84.2462 95.7279 84.8954 95.268 85.416 94.6802C85.4383 94.6529 85.4682 94.633 85.5019 94.623C85.5356 94.613 85.5715 94.6134 85.605 94.6242C85.899 94.7222 85.941 95.0161 85.983 95.2541C85.9884 95.3853 86.027 95.5129 86.095 95.6251C86.193 95.7301 86.396 95.7371 86.711 95.6251C87.7944 95.2804 88.8538 94.8642 89.882 94.3791C90.1978 94.2124 90.5632 94.1652 90.911 94.2462C90.9829 94.2727 91.0486 94.3138 91.104 94.3667C91.1594 94.4197 91.2033 94.4835 91.233 94.5541C91.2745 94.6709 91.2935 94.7944 91.289 94.9182C91.2799 95.0074 91.2969 95.0974 91.338 95.1771C91.401 95.2471 91.548 95.2541 91.793 95.1771L94.593 94.4141C95.1575 94.1978 95.7725 94.1491 96.364 94.2742C96.5482 94.3341 96.718 94.4316 96.8626 94.5605C97.0072 94.6894 97.1235 94.847 97.204 95.0231C97.2936 95.2205 97.3158 95.4419 97.267 95.6532C97.7245 95.827 98.2165 95.8903 98.7031 95.838C99.1896 95.7857 99.657 95.6192 100.067 95.3521C100.086 95.3391 100.108 95.3299 100.131 95.3253C100.154 95.3207 100.177 95.3207 100.2 95.3252C100.223 95.3298 100.244 95.3388 100.264 95.3519C100.283 95.3649 100.299 95.3817 100.312 95.4012C100.337 95.4405 100.345 95.4878 100.336 95.5334C100.327 95.5789 100.301 95.6193 100.263 95.6462C99.784 95.9547 99.2361 96.1398 98.6681 96.185C98.1001 96.2302 97.5298 96.134 97.008 95.9052C96.9859 95.8977 96.966 95.8848 96.9501 95.8677C96.9342 95.8506 96.9228 95.8298 96.917 95.8072C96.9066 95.7865 96.9011 95.7638 96.9011 95.7407C96.9011 95.7175 96.9066 95.6948 96.917 95.6742C96.954 95.5941 96.9732 95.5069 96.9732 95.4186C96.9732 95.3304 96.954 95.2432 96.917 95.1632C96.8561 95.0336 96.7694 94.9178 96.6623 94.8227C96.5552 94.7276 96.4299 94.6553 96.294 94.6101C95.7661 94.5121 95.2214 94.5605 94.719 94.7501L91.919 95.5202C91.779 95.5202 91.338 95.6811 91.1 95.3871C91.0034 95.2509 90.9587 95.0845 90.974 94.9182C90.9868 94.8417 90.9868 94.7636 90.974 94.6871C90.9493 94.6308 90.9044 94.5859 90.848 94.5612C90.5882 94.5144 90.3203 94.5616 90.092 94.6942C89.0489 95.1821 87.9757 95.6029 86.879 95.9541C86.711 96.0031 86.179 96.1711 85.899 95.8351C85.7791 95.6771 85.7085 95.4872 85.696 95.2891C85.6871 95.1935 85.666 95.0994 85.633 95.0092C85.0972 95.584 84.4427 96.0355 83.715 96.3322C83.5133 96.4157 83.2963 96.4563 83.078 96.4512Z" fill="#263238"/>
<path d="M108.033 97.8722C107.855 97.8971 107.673 97.8581 107.52 97.762C107.368 97.6659 107.254 97.519 107.2 97.3472C107.149 97.0773 107.153 96.7999 107.212 96.5316C107.271 96.2634 107.384 96.0098 107.543 95.7862C107.023 95.9892 106.47 96.0937 105.912 96.0942C105.598 96.1217 105.282 96.0656 104.997 95.9315C104.712 95.7975 104.467 95.5904 104.288 95.3312C104.199 95.1542 104.162 94.9555 104.182 94.7584C104.202 94.5613 104.278 94.3739 104.4 94.2182C104.48 94.0927 104.597 93.996 104.736 93.9418C104.874 93.8877 105.026 93.8791 105.17 93.9172C105.215 93.9303 105.253 93.9601 105.276 94.0005C105.3 94.0409 105.307 94.0887 105.296 94.1342C105.29 94.1569 105.28 94.1782 105.266 94.1969C105.252 94.2156 105.234 94.2312 105.214 94.243C105.194 94.2547 105.172 94.2623 105.148 94.2653C105.125 94.2682 105.102 94.2665 105.079 94.2602C105.003 94.2456 104.924 94.2546 104.852 94.2858C104.781 94.317 104.721 94.3691 104.68 94.4352C104.604 94.5333 104.556 94.6499 104.54 94.7729C104.524 94.8958 104.541 95.0209 104.589 95.1352C104.747 95.3333 104.95 95.4903 105.182 95.5927C105.413 95.6951 105.666 95.7398 105.919 95.7232H105.961C106.69 95.7206 107.405 95.5172 108.026 95.1352C108.23 94.9246 108.467 94.7474 108.726 94.6102C108.764 94.5907 108.807 94.5857 108.849 94.596C108.89 94.6063 108.926 94.6312 108.95 94.6662C108.977 94.6987 108.991 94.7395 108.991 94.7817C108.991 94.8238 108.977 94.8646 108.95 94.8972C108.734 95.0906 108.5 95.2618 108.25 95.4082C108.006 95.6376 107.816 95.919 107.695 96.2316C107.574 96.5442 107.524 96.8799 107.55 97.2142C107.627 97.4522 107.865 97.5432 108.25 97.4802C109.538 96.9859 110.724 96.2599 111.75 95.3382L112.52 94.7292C112.551 94.7084 112.588 94.6973 112.625 94.6973C112.662 94.6973 112.699 94.7084 112.73 94.7292C112.762 94.7493 112.785 94.78 112.797 94.8158C112.808 94.8516 112.807 94.8903 112.793 94.9252L112.422 96.0662C114.129 95.935 115.762 95.3153 117.126 94.2812C117.163 94.2533 117.21 94.2414 117.256 94.2479C117.302 94.2545 117.343 94.279 117.371 94.3162C117.399 94.3533 117.411 94.4 117.404 94.4459C117.398 94.4919 117.373 94.5333 117.336 94.5612C116.859 94.9358 116.52 95.4575 116.37 96.0452L120.766 95.0232C120.873 94.9862 120.986 94.9727 121.098 94.9835C121.211 94.9944 121.319 95.0294 121.417 95.0862C121.556 95.2139 121.643 95.3883 121.662 95.5762C121.659 95.6181 121.659 95.6602 121.662 95.7022C121.872 96.4792 123.062 96.5072 123.587 96.4792C124.484 96.4919 125.374 96.3154 126.198 95.9612C126.772 95.7295 127.358 95.5308 127.955 95.3662C128.029 95.353 128.105 95.3589 128.176 95.3834C128.247 95.4079 128.311 95.4502 128.361 95.5062C128.508 95.6952 128.417 95.9822 128.319 96.2832C128.221 96.5842 128.158 96.7942 128.242 96.8712C128.326 96.9482 128.417 96.9972 129.124 96.7662L132.897 94.5472C133.288 94.2654 133.753 94.1048 134.234 94.0852C134.545 94.141 134.842 94.2591 135.107 94.4323C135.371 94.6055 135.598 94.8302 135.774 95.0932L135.844 95.1842C136.125 95.614 136.523 95.9542 136.992 96.1642C137.133 96.2021 137.28 96.206 137.423 96.1756C137.565 96.1452 137.698 96.0813 137.811 95.9892C137.878 95.9394 137.931 95.8735 137.965 95.7976C138 95.7216 138.014 95.6382 138.007 95.5552C138 95.5155 138.007 95.4745 138.028 95.4398C138.048 95.4051 138.081 95.379 138.119 95.3662C138.158 95.355 138.199 95.3564 138.237 95.3703C138.274 95.3841 138.307 95.4096 138.329 95.4432C138.627 95.9161 139.061 96.2873 139.575 96.5072C139.932 96.4442 140.1 96.0592 140.275 95.6112C140.341 95.368 140.457 95.1414 140.617 94.946C140.776 94.7507 140.974 94.5909 141.199 94.4772C141.532 94.3947 141.882 94.4192 142.2 94.5472C146.75 95.7442 151.699 95.2472 156.06 94.7362C156.083 94.7332 156.106 94.7349 156.129 94.7411C156.151 94.7473 156.172 94.7578 156.19 94.7721C156.208 94.7865 156.224 94.8043 156.235 94.8245C156.246 94.8448 156.253 94.8671 156.256 94.8902C156.26 94.9363 156.246 94.9822 156.218 95.0187C156.189 95.0551 156.148 95.0792 156.102 95.0862C151.706 95.5622 146.722 96.1012 142.102 94.8902C141.848 94.7896 141.571 94.7653 141.304 94.8202C140.947 94.9392 140.772 95.3382 140.604 95.7652C140.436 96.1922 140.142 96.8152 139.561 96.8782C139.534 96.8891 139.504 96.8891 139.477 96.8782C139.004 96.6858 138.586 96.3806 138.259 95.9892C138.202 96.1035 138.121 96.2038 138.021 96.2832C137.865 96.4152 137.678 96.5066 137.478 96.5493C137.277 96.5921 137.07 96.5848 136.873 96.5282C136.337 96.2971 135.88 95.9153 135.557 95.4292L135.487 95.3452C135.344 95.1196 135.156 94.9252 134.936 94.7737C134.716 94.6221 134.468 94.5165 134.206 94.4632C133.791 94.4842 133.391 94.6279 133.058 94.8762L129.257 97.1162C128.557 97.3402 128.179 97.3472 127.976 97.1512C127.773 96.9552 127.871 96.5422 127.976 96.2062C128.018 96.0662 128.102 95.8072 128.067 95.7442H127.99C127.419 95.9055 126.858 96.0995 126.31 96.3252C125.451 96.6883 124.527 96.8718 123.594 96.8642C122.341 96.9272 121.494 96.5492 121.312 95.8282C121.297 95.78 121.285 95.7309 121.277 95.6812C121.268 95.5788 121.229 95.4813 121.165 95.4012C121.088 95.3452 120.941 95.4012 120.808 95.4012L116.139 96.4792C116.111 96.4867 116.081 96.4868 116.053 96.4795C116.025 96.4721 115.999 96.4575 115.978 96.4372C115.956 96.4185 115.94 96.3943 115.932 96.3671C115.923 96.3399 115.922 96.3108 115.929 96.2832C115.986 95.9174 116.112 95.5658 116.3 95.2472C115.034 95.9652 113.617 96.3753 112.163 96.4442C112.135 96.4453 112.106 96.4395 112.081 96.4273C112.055 96.4151 112.033 96.3969 112.016 96.3742C112.003 96.3495 111.995 96.3218 111.995 96.2937C111.995 96.2655 112.003 96.2379 112.016 96.2132L112.289 95.3802L111.974 95.6322C110.919 96.5789 109.7 97.3239 108.376 97.8302C108.263 97.856 108.148 97.87 108.033 97.8722Z" fill="#263238"/>
</svg>
